%TF.GenerationSoftware,KiCad,Pcbnew,8.0.8*%
%TF.CreationDate,2025-02-12T19:32:24+03:00*%
%TF.ProjectId,Lower_keyboard,4c6f7765-725f-46b6-9579-626f6172642e,rev?*%
%TF.SameCoordinates,Original*%
%TF.FileFunction,Copper,L2,Bot*%
%TF.FilePolarity,Positive*%
%FSLAX46Y46*%
G04 Gerber Fmt 4.6, Leading zero omitted, Abs format (unit mm)*
G04 Created by KiCad (PCBNEW 8.0.8) date 2025-02-12 19:32:24*
%MOMM*%
%LPD*%
G01*
G04 APERTURE LIST*
G04 Aperture macros list*
%AMRoundRect*
0 Rectangle with rounded corners*
0 $1 Rounding radius*
0 $2 $3 $4 $5 $6 $7 $8 $9 X,Y pos of 4 corners*
0 Add a 4 corners polygon primitive as box body*
4,1,4,$2,$3,$4,$5,$6,$7,$8,$9,$2,$3,0*
0 Add four circle primitives for the rounded corners*
1,1,$1+$1,$2,$3*
1,1,$1+$1,$4,$5*
1,1,$1+$1,$6,$7*
1,1,$1+$1,$8,$9*
0 Add four rect primitives between the rounded corners*
20,1,$1+$1,$2,$3,$4,$5,0*
20,1,$1+$1,$4,$5,$6,$7,0*
20,1,$1+$1,$6,$7,$8,$9,0*
20,1,$1+$1,$8,$9,$2,$3,0*%
G04 Aperture macros list end*
%TA.AperFunction,SMDPad,CuDef*%
%ADD10RoundRect,0.075000X0.075000X-0.350000X0.075000X0.350000X-0.075000X0.350000X-0.075000X-0.350000X0*%
%TD*%
%TA.AperFunction,ComponentPad*%
%ADD11R,1.000000X1.000000*%
%TD*%
%TA.AperFunction,ComponentPad*%
%ADD12O,1.000000X1.000000*%
%TD*%
%TA.AperFunction,ViaPad*%
%ADD13C,0.600000*%
%TD*%
%TA.AperFunction,Conductor*%
%ADD14C,0.200000*%
%TD*%
G04 APERTURE END LIST*
D10*
%TO.P,U1,1,1*%
%TO.N,SW6*%
X4500000Y-13935000D03*
%TO.P,U1,2,2*%
%TO.N,SW5*%
X4000000Y-13935000D03*
%TO.P,U1,3,3*%
%TO.N,SW3*%
X3500000Y-13935000D03*
%TO.P,U1,4,4*%
%TO.N,SW4*%
X3000000Y-13935000D03*
%TO.P,U1,5,5*%
%TO.N,GND*%
X2500000Y-13935000D03*
%TO.P,U1,6,6*%
%TO.N,SW2*%
X2000000Y-13935000D03*
%TO.P,U1,7,7*%
%TO.N,SW1*%
X1500000Y-13935000D03*
%TO.P,U1,8,8*%
X1500000Y-12685000D03*
%TO.P,U1,9,9*%
%TO.N,SW2*%
X2000000Y-12685000D03*
%TO.P,U1,10,10*%
%TO.N,GND*%
X2500000Y-12685000D03*
%TO.P,U1,11,11*%
%TO.N,SW4*%
X3000000Y-12685000D03*
%TO.P,U1,12,12*%
%TO.N,SW3*%
X3500000Y-12685000D03*
%TO.P,U1,13,13*%
%TO.N,SW5*%
X4000000Y-12685000D03*
%TO.P,U1,14,14*%
%TO.N,SW6*%
X4500000Y-12685000D03*
%TD*%
%TO.P,U2,1,1*%
%TO.N,SW7*%
X-1500000Y-13455000D03*
%TO.P,U2,2,2*%
%TO.N,SW8*%
X-2000000Y-13455000D03*
%TO.P,U2,3,3*%
%TO.N,SW9*%
X-2500000Y-13455000D03*
%TO.P,U2,4,4*%
%TO.N,unconnected-(U2-Pad4)*%
X-3000000Y-13455000D03*
%TO.P,U2,5,5*%
%TO.N,GND*%
X-3500000Y-13455000D03*
%TO.P,U2,6,6*%
%TO.N,unconnected-(U2-Pad6)*%
X-4000000Y-13455000D03*
%TO.P,U2,7,7*%
%TO.N,unconnected-(U2-Pad7)*%
X-4500000Y-13455000D03*
%TO.P,U2,8,8*%
%TO.N,unconnected-(U2-Pad8)*%
X-4500000Y-12205000D03*
%TO.P,U2,9,9*%
%TO.N,unconnected-(U2-Pad9)*%
X-4000000Y-12205000D03*
%TO.P,U2,10,10*%
%TO.N,GND*%
X-3500000Y-12205000D03*
%TO.P,U2,11,11*%
%TO.N,unconnected-(U2-Pad11)*%
X-3000000Y-12205000D03*
%TO.P,U2,12,12*%
%TO.N,SW9*%
X-2500000Y-12205000D03*
%TO.P,U2,13,13*%
%TO.N,SW8*%
X-2000000Y-12205000D03*
%TO.P,U2,14,14*%
%TO.N,SW7*%
X-1500000Y-12205000D03*
%TD*%
D11*
%TO.P,J2,1,Pin_1*%
%TO.N,SW6*%
X5725000Y-16575000D03*
D12*
%TO.P,J2,2,Pin_2*%
%TO.N,SW5*%
X4455000Y-16575000D03*
%TO.P,J2,3,Pin_3*%
%TO.N,SW3*%
X3185000Y-16575000D03*
%TO.P,J2,4,Pin_4*%
%TO.N,SW4*%
X1915000Y-16575000D03*
%TO.P,J2,5,Pin_5*%
%TO.N,SW2*%
X645000Y-16575000D03*
%TO.P,J2,6,Pin_6*%
%TO.N,SW1*%
X-625000Y-16575000D03*
%TO.P,J2,7,Pin_7*%
%TO.N,SW7*%
X-1895000Y-16575000D03*
%TO.P,J2,8,Pin_8*%
%TO.N,SW8*%
X-3165000Y-16575000D03*
%TO.P,J2,9,Pin_9*%
%TO.N,SW9*%
X-4435000Y-16575000D03*
%TO.P,J2,10,Pin_10*%
%TO.N,GND*%
X-5705000Y-16575000D03*
%TD*%
D13*
%TO.N,GND*%
X0Y13800000D03*
X-200000Y-14600000D03*
X-7000000Y-15600000D03*
X-7000000Y-16600000D03*
X-5800000Y-15400000D03*
X-4400000Y11800000D03*
X-10800000Y-9600000D03*
X2340380Y-15140380D03*
X-3200000Y-14600000D03*
X1400000Y3400000D03*
X11000000Y-9600000D03*
X-7200000Y3800000D03*
X2350000Y-11719683D03*
X-4000000Y-11200000D03*
X4200000Y13600000D03*
X3400000Y-7200000D03*
X3600000Y9600000D03*
X7200000Y3800000D03*
%TO.N,SW3*%
X10000000Y5000000D03*
%TO.N,SW1*%
X-10000000Y5000000D03*
%TO.N,SW4*%
X-6050000Y-5450000D03*
X2600000Y-10400000D03*
X200000Y-10000000D03*
%TO.N,SW9*%
X0Y-13000008D03*
%TO.N,SW7*%
X-1500000Y-10500000D03*
%TO.N,SW6*%
X6000000Y-5500000D03*
%TO.N,SW5*%
X3450000Y-5784620D03*
%TO.N,SW2*%
X-3500000Y6000000D03*
%TO.N,SW8*%
X-3500000Y-9850000D03*
%TD*%
D14*
%TO.N,SW3*%
X3400000Y-10000000D02*
X3400000Y-10400000D01*
X10000000Y5000000D02*
X2800000Y-2200000D01*
X3500000Y-12685000D02*
X3500000Y-13935000D01*
X2800000Y-2200000D02*
X2800000Y-9400000D01*
X3500000Y-10500000D02*
X3500000Y-12685000D01*
X2800000Y-9400000D02*
X3400000Y-10000000D01*
X3400000Y-10400000D02*
X3500000Y-10500000D01*
%TO.N,SW1*%
X600000Y-15400000D02*
X550000Y-15400000D01*
X1500000Y-13935000D02*
X1500000Y-14500000D01*
X1350000Y-12535000D02*
X1500000Y-12685000D01*
X1500000Y-12685000D02*
X1500000Y-13935000D01*
X550000Y-15400000D02*
X-625000Y-16575000D01*
X1350000Y-6350000D02*
X1350000Y-12535000D01*
X1500000Y-14500000D02*
X600000Y-15400000D01*
X-10000000Y5000000D02*
X1350000Y-6350000D01*
%TO.N,SW4*%
X2600000Y-10400000D02*
X3000000Y-10800000D01*
X2800000Y-15690000D02*
X1915000Y-16575000D01*
X200000Y-8800001D02*
X200000Y-10000000D01*
X3000000Y-12685000D02*
X3000000Y-13935000D01*
X3000000Y-13935000D02*
X3000000Y-15400000D01*
X-6050000Y-5450000D02*
X-3150001Y-5450000D01*
X-3150001Y-5450000D02*
X200000Y-8800001D01*
X2800000Y-15600000D02*
X2800000Y-15690000D01*
X3000000Y-15400000D02*
X2800000Y-15600000D01*
X3000000Y-10800000D02*
X3000000Y-12685000D01*
%TO.N,SW9*%
X-4100000Y-9601471D02*
X-3748529Y-9250000D01*
X-1901471Y-9250000D02*
X0Y-11151471D01*
X-4100000Y-10098529D02*
X-4100000Y-9601471D01*
X-2500000Y-12205000D02*
X-2500000Y-13455000D01*
X-2500000Y-12205000D02*
X-2500000Y-11698529D01*
X0Y-11151471D02*
X0Y-13000008D01*
X-2500000Y-11698529D02*
X-4100000Y-10098529D01*
X-3748529Y-9250000D02*
X-1901471Y-9250000D01*
%TO.N,SW7*%
X-1500000Y-10500000D02*
X-1500000Y-12205000D01*
X-1500000Y-12205000D02*
X-1500000Y-13455000D01*
%TO.N,SW6*%
X4500000Y-14700000D02*
X5725000Y-15925000D01*
X4500000Y-7000000D02*
X4500000Y-12685000D01*
X4500000Y-12685000D02*
X4500000Y-13935000D01*
X6000000Y-5500000D02*
X4500000Y-7000000D01*
X4500000Y-13935000D02*
X4500000Y-14700000D01*
%TO.N,SW5*%
X4000000Y-6334620D02*
X3450000Y-5784620D01*
X4000000Y-12685000D02*
X4000000Y-6334620D01*
X4000000Y-15000000D02*
X4455000Y-15455000D01*
X4000000Y-12685000D02*
X4000000Y-13935000D01*
X4455000Y-15455000D02*
X4455000Y-16575000D01*
X4000000Y-13935000D02*
X4000000Y-15000000D01*
%TO.N,SW2*%
X2000000Y-13935000D02*
X2000000Y-14600000D01*
X2000000Y-12685000D02*
X2000000Y-13935000D01*
X2000000Y-12685000D02*
X2000000Y-12227590D01*
X1750000Y750000D02*
X-3500000Y6000000D01*
X1750000Y-11977590D02*
X1750000Y750000D01*
X2000000Y-12227590D02*
X1750000Y-11977590D01*
X2000000Y-14600000D02*
X645000Y-15955000D01*
%TO.N,SW8*%
X-2000000Y-11350000D02*
X-3500000Y-9850000D01*
X-2000000Y-12205000D02*
X-2000000Y-11350000D01*
X-2000000Y-12205000D02*
X-2000000Y-13455000D01*
X-2000000Y-13455000D02*
X-2000000Y-15410000D01*
X-2000000Y-15410000D02*
X-3165000Y-16575000D01*
%TO.N,SW6*%
X5725000Y-15925000D02*
X5725000Y-16575000D01*
%TO.N,SW3*%
X3500000Y-16260000D02*
X3185000Y-16575000D01*
X3500000Y-13935000D02*
X3500000Y-16260000D01*
%TO.N,SW2*%
X645000Y-15955000D02*
X645000Y-16575000D01*
%TO.N,SW7*%
X-1500000Y-16180000D02*
X-1895000Y-16575000D01*
X-1500000Y-13455000D02*
X-1500000Y-16180000D01*
%TO.N,SW9*%
X-3275000Y-15775000D02*
X-3635000Y-15775000D01*
X-2500000Y-13455000D02*
X-2500000Y-15000000D01*
X-3635000Y-15775000D02*
X-4435000Y-16575000D01*
X-2500000Y-15000000D02*
X-3275000Y-15775000D01*
%TD*%
%TA.AperFunction,Conductor*%
%TO.N,GND*%
G36*
X2134148Y-10592183D02*
G01*
X2144072Y-10606476D01*
X2174622Y-10673372D01*
X2174625Y-10673376D01*
X2261273Y-10773373D01*
X2268872Y-10782143D01*
X2389947Y-10859953D01*
X2465513Y-10882141D01*
X2528034Y-10900499D01*
X2528037Y-10900499D01*
X2528039Y-10900500D01*
X2528040Y-10900500D01*
X2650500Y-10900500D01*
X2685148Y-10914852D01*
X2699500Y-10949500D01*
X2699500Y-12019669D01*
X2685148Y-12054317D01*
X2650500Y-12068669D01*
X2640942Y-12067728D01*
X2602086Y-12060000D01*
X2600000Y-12060000D01*
X2600000Y-14560000D01*
X2602087Y-14560000D01*
X2602093Y-14559999D01*
X2640941Y-14552272D01*
X2677723Y-14559588D01*
X2698558Y-14590771D01*
X2699500Y-14600330D01*
X2699500Y-15255233D01*
X2685148Y-15289881D01*
X2559541Y-15415488D01*
X2559540Y-15415488D01*
X2519979Y-15484008D01*
X2519979Y-15484010D01*
X2501033Y-15554712D01*
X2488351Y-15576677D01*
X2172406Y-15892621D01*
X2137758Y-15906973D01*
X2126032Y-15905549D01*
X2000059Y-15874500D01*
X2000056Y-15874500D01*
X1829944Y-15874500D01*
X1664775Y-15915209D01*
X1514156Y-15994261D01*
X1514151Y-15994264D01*
X1514148Y-15994266D01*
X1514146Y-15994268D01*
X1386816Y-16107071D01*
X1320326Y-16203398D01*
X1288832Y-16223760D01*
X1252165Y-16215889D01*
X1239674Y-16203398D01*
X1173183Y-16107071D01*
X1076782Y-16021667D01*
X1060364Y-15987948D01*
X1072598Y-15952497D01*
X1074610Y-15950359D01*
X2240460Y-14784511D01*
X2254877Y-14759540D01*
X2280021Y-14715989D01*
X2300500Y-14639562D01*
X2300500Y-14600330D01*
X2314852Y-14565682D01*
X2349500Y-14551330D01*
X2359059Y-14552272D01*
X2397906Y-14559999D01*
X2397913Y-14560000D01*
X2400000Y-14560000D01*
X2400000Y-12060000D01*
X2397915Y-12060000D01*
X2317696Y-12075956D01*
X2313243Y-12077801D01*
X2312614Y-12076283D01*
X2282370Y-12082295D01*
X2251190Y-12061455D01*
X2249500Y-12058737D01*
X2240462Y-12043082D01*
X2240457Y-12043076D01*
X2064852Y-11867471D01*
X2050500Y-11832823D01*
X2050500Y-10626831D01*
X2064852Y-10592183D01*
X2099500Y-10577831D01*
X2134148Y-10592183D01*
G37*
%TD.AperFunction*%
%TA.AperFunction,Conductor*%
G36*
X3175989Y-6203470D02*
G01*
X3239947Y-6244573D01*
X3293175Y-6260202D01*
X3378034Y-6285119D01*
X3378037Y-6285119D01*
X3378039Y-6285120D01*
X3378040Y-6285120D01*
X3505233Y-6285120D01*
X3539881Y-6299472D01*
X3685148Y-6444739D01*
X3699500Y-6479387D01*
X3699500Y-9756233D01*
X3685148Y-9790881D01*
X3650500Y-9805233D01*
X3615852Y-9790881D01*
X3114852Y-9289881D01*
X3100500Y-9255233D01*
X3100500Y-6244692D01*
X3114852Y-6210044D01*
X3149500Y-6195692D01*
X3175989Y-6203470D01*
G37*
%TD.AperFunction*%
%TA.AperFunction,Conductor*%
G36*
X11485148Y16485148D02*
G01*
X11499500Y16450500D01*
X11499500Y-17450500D01*
X11485148Y-17485148D01*
X11450500Y-17499500D01*
X-11450500Y-17499500D01*
X-11485148Y-17485148D01*
X-11499500Y-17450500D01*
X-11499500Y-14893713D01*
X-11350500Y-14893713D01*
X-11350500Y-15106287D01*
X-11317246Y-15316243D01*
X-11251557Y-15518412D01*
X-11155051Y-15707816D01*
X-11030104Y-15879792D01*
X-11030100Y-15879795D01*
X-11030099Y-15879798D01*
X-10879798Y-16030099D01*
X-10879795Y-16030100D01*
X-10879792Y-16030104D01*
X-10707816Y-16155051D01*
X-10518412Y-16251557D01*
X-10316243Y-16317246D01*
X-10106287Y-16350500D01*
X-10106286Y-16350500D01*
X-9893714Y-16350500D01*
X-9893713Y-16350500D01*
X-9683757Y-16317246D01*
X-9481588Y-16251557D01*
X-9292184Y-16155051D01*
X-9273748Y-16141657D01*
X-9185972Y-16077884D01*
X-9120208Y-16030104D01*
X-9120206Y-16030102D01*
X-9120202Y-16030099D01*
X-8969901Y-15879798D01*
X-8969897Y-15879793D01*
X-8969100Y-15878697D01*
X-8857049Y-15724471D01*
X-8844952Y-15707821D01*
X-8844947Y-15707813D01*
X-8748443Y-15518412D01*
X-8682754Y-15316243D01*
X-8682753Y-15316240D01*
X-8649500Y-15106286D01*
X-8649500Y-14893713D01*
X-8682753Y-14683759D01*
X-8682754Y-14683756D01*
X-8748443Y-14481586D01*
X-8844947Y-14292186D01*
X-8844952Y-14292178D01*
X-8969897Y-14120206D01*
X-9120206Y-13969897D01*
X-9292178Y-13844952D01*
X-9292186Y-13844947D01*
X-9481586Y-13748443D01*
X-9683756Y-13682754D01*
X-9683759Y-13682753D01*
X-9854202Y-13655757D01*
X-9893713Y-13649500D01*
X-10106287Y-13649500D01*
X-10154957Y-13657208D01*
X-10316240Y-13682753D01*
X-10316243Y-13682754D01*
X-10518413Y-13748443D01*
X-10707813Y-13844947D01*
X-10707821Y-13844952D01*
X-10879793Y-13969897D01*
X-10879798Y-13969901D01*
X-11030099Y-14120202D01*
X-11030102Y-14120206D01*
X-11030104Y-14120208D01*
X-11155051Y-14292184D01*
X-11251557Y-14481588D01*
X-11317246Y-14683757D01*
X-11350500Y-14893713D01*
X-11499500Y-14893713D01*
X-11499500Y-11827867D01*
X-4850500Y-11827867D01*
X-4850499Y-12582132D01*
X-4834515Y-12662495D01*
X-4773624Y-12753624D01*
X-4734499Y-12779767D01*
X-4720294Y-12789258D01*
X-4699459Y-12820440D01*
X-4706775Y-12857223D01*
X-4720294Y-12870742D01*
X-4773624Y-12906375D01*
X-4790568Y-12931734D01*
X-4834515Y-12997505D01*
X-4850500Y-13077867D01*
X-4850499Y-13832132D01*
X-4834515Y-13912495D01*
X-4773624Y-14003624D01*
X-4682495Y-14064515D01*
X-4602133Y-14080500D01*
X-4397868Y-14080499D01*
X-4317505Y-14064515D01*
X-4277220Y-14037597D01*
X-4240441Y-14030281D01*
X-4222782Y-14037595D01*
X-4182495Y-14064515D01*
X-4102133Y-14080500D01*
X-3897868Y-14080499D01*
X-3817505Y-14064515D01*
X-3776771Y-14037297D01*
X-3739991Y-14029981D01*
X-3722326Y-14037299D01*
X-3682301Y-14064044D01*
X-3602085Y-14080000D01*
X-3600000Y-14080000D01*
X-3600000Y-11580000D01*
X-3602085Y-11580000D01*
X-3682299Y-11595955D01*
X-3722326Y-11622701D01*
X-3759109Y-11630018D01*
X-3776773Y-11622701D01*
X-3817504Y-11595485D01*
X-3837595Y-11591488D01*
X-3897867Y-11579500D01*
X-3897869Y-11579500D01*
X-3897870Y-11579500D01*
X-4102128Y-11579500D01*
X-4182495Y-11595485D01*
X-4182498Y-11595486D01*
X-4222778Y-11622400D01*
X-4259560Y-11629716D01*
X-4277222Y-11622400D01*
X-4317503Y-11595485D01*
X-4356442Y-11587740D01*
X-4397867Y-11579500D01*
X-4397869Y-11579500D01*
X-4397870Y-11579500D01*
X-4602128Y-11579500D01*
X-4682495Y-11595485D01*
X-4773624Y-11656375D01*
X-4790568Y-11681734D01*
X-4834515Y-11747505D01*
X-4850500Y-11827867D01*
X-11499500Y-11827867D01*
X-11499500Y-5449997D01*
X-6555647Y-5449997D01*
X-6555647Y-5450002D01*
X-6535166Y-5592454D01*
X-6535165Y-5592455D01*
X-6535165Y-5592457D01*
X-6475377Y-5723373D01*
X-6381128Y-5832143D01*
X-6260053Y-5909953D01*
X-6144795Y-5943795D01*
X-6121965Y-5950499D01*
X-6121963Y-5950499D01*
X-6121961Y-5950500D01*
X-6121960Y-5950500D01*
X-5978040Y-5950500D01*
X-5978039Y-5950500D01*
X-5978037Y-5950499D01*
X-5978034Y-5950499D01*
X-5916785Y-5932514D01*
X-5839947Y-5909953D01*
X-5718872Y-5832143D01*
X-5667948Y-5773374D01*
X-5662782Y-5767412D01*
X-5629246Y-5750625D01*
X-5625750Y-5750500D01*
X-3294768Y-5750500D01*
X-3260120Y-5764852D01*
X-114852Y-8910120D01*
X-100500Y-8944768D01*
X-100500Y-9571417D01*
X-114852Y-9606065D01*
X-123006Y-9612637D01*
X-131128Y-9617857D01*
X-131129Y-9617859D01*
X-131131Y-9617860D01*
X-208842Y-9707545D01*
X-225377Y-9726627D01*
X-265959Y-9815489D01*
X-285166Y-9857545D01*
X-305647Y-9999997D01*
X-305647Y-10000002D01*
X-285166Y-10142454D01*
X-285165Y-10142455D01*
X-285165Y-10142457D01*
X-225377Y-10273373D01*
X-131128Y-10382143D01*
X-10053Y-10459953D01*
X80117Y-10486429D01*
X128034Y-10500499D01*
X128037Y-10500499D01*
X128039Y-10500500D01*
X128040Y-10500500D01*
X271960Y-10500500D01*
X271961Y-10500500D01*
X271963Y-10500499D01*
X271965Y-10500499D01*
X316821Y-10487328D01*
X410053Y-10459953D01*
X531128Y-10382143D01*
X625377Y-10273373D01*
X685165Y-10142457D01*
X685165Y-10142455D01*
X685166Y-10142454D01*
X705647Y-10000002D01*
X705647Y-9999997D01*
X685166Y-9857545D01*
X665959Y-9815489D01*
X625377Y-9726627D01*
X608842Y-9707545D01*
X531131Y-9617860D01*
X531129Y-9617859D01*
X531128Y-9617857D01*
X523006Y-9612637D01*
X501619Y-9581830D01*
X500500Y-9571417D01*
X500500Y-8760437D01*
X491843Y-8728135D01*
X480021Y-8684012D01*
X480020Y-8684010D01*
X480020Y-8684009D01*
X440459Y-8615489D01*
X-2965487Y-5209542D01*
X-2965493Y-5209537D01*
X-2978532Y-5202010D01*
X-2982880Y-5199500D01*
X-3034009Y-5169979D01*
X-3034013Y-5169978D01*
X-3110437Y-5149500D01*
X-3110439Y-5149500D01*
X-5625750Y-5149500D01*
X-5660398Y-5135148D01*
X-5662782Y-5132588D01*
X-5718871Y-5067857D01*
X-5839949Y-4990046D01*
X-5978034Y-4949500D01*
X-5978039Y-4949500D01*
X-6121961Y-4949500D01*
X-6121965Y-4949500D01*
X-6260050Y-4990046D01*
X-6260053Y-4990047D01*
X-6381128Y-5067857D01*
X-6437217Y-5132588D01*
X-6475377Y-5176627D01*
X-6498211Y-5226627D01*
X-6535166Y-5307545D01*
X-6555647Y-5449997D01*
X-11499500Y-5449997D01*
X-11499500Y5000002D01*
X-10505647Y5000002D01*
X-10505647Y4999997D01*
X-10485166Y4857545D01*
X-10485165Y4857543D01*
X-10425377Y4726627D01*
X-10331128Y4617857D01*
X-10210053Y4540047D01*
X-10210050Y4540046D01*
X-10071965Y4499500D01*
X-9944767Y4499500D01*
X-9910119Y4485148D01*
X1035148Y-6460119D01*
X1049500Y-6494767D01*
X1049500Y-12574563D01*
X1069979Y-12650989D01*
X1069979Y-12650991D01*
X1109540Y-12719511D01*
X1135148Y-12745119D01*
X1149500Y-12779767D01*
X1149500Y-13062128D01*
X1165485Y-13142495D01*
X1191242Y-13181042D01*
X1199500Y-13208265D01*
X1199500Y-13411734D01*
X1191242Y-13438956D01*
X1165485Y-13477505D01*
X1149500Y-13557867D01*
X1149500Y-13557868D01*
X1149500Y-13557870D01*
X1149500Y-14312130D01*
X1163204Y-14381028D01*
X1155886Y-14417810D01*
X1149793Y-14425234D01*
X472035Y-15102992D01*
X450073Y-15115673D01*
X434017Y-15119976D01*
X434008Y-15119980D01*
X374220Y-15154499D01*
X374219Y-15154500D01*
X365492Y-15159537D01*
X365486Y-15159542D01*
X-367592Y-15892621D01*
X-402240Y-15906973D01*
X-413966Y-15905549D01*
X-539941Y-15874500D01*
X-539944Y-15874500D01*
X-710056Y-15874500D01*
X-875224Y-15915209D01*
X-1025843Y-15994261D01*
X-1025844Y-15994262D01*
X-1025852Y-15994266D01*
X-1113284Y-16071724D01*
X-1118007Y-16075908D01*
X-1153459Y-16088142D01*
X-1187177Y-16071724D01*
X-1199500Y-16039231D01*
X-1199500Y-13978265D01*
X-1191242Y-13951043D01*
X-1165485Y-13912495D01*
X-1149500Y-13832133D01*
X-1149500Y-13459961D01*
X-1149500Y-13077871D01*
X-1165485Y-12997504D01*
X-1191242Y-12958957D01*
X-1199500Y-12931734D01*
X-1199500Y-12728265D01*
X-1191242Y-12701043D01*
X-1165485Y-12662495D01*
X-1149500Y-12582133D01*
X-1149500Y-12227504D01*
X-1149500Y-11827871D01*
X-1165485Y-11747504D01*
X-1191242Y-11708957D01*
X-1199500Y-11681734D01*
X-1199500Y-10928582D01*
X-1185148Y-10893934D01*
X-1176994Y-10887363D01*
X-1168872Y-10882143D01*
X-1082221Y-10782142D01*
X-1074625Y-10773376D01*
X-1074624Y-10773374D01*
X-1074623Y-10773373D01*
X-1018804Y-10651148D01*
X-991355Y-10625593D01*
X-953876Y-10626932D01*
X-939587Y-10636853D01*
X-314851Y-11261590D01*
X-300500Y-11296237D01*
X-300500Y-12571425D01*
X-314852Y-12606073D01*
X-323006Y-12612645D01*
X-331128Y-12617865D01*
X-331129Y-12617867D01*
X-331131Y-12617868D01*
X-419204Y-12719511D01*
X-425377Y-12726635D01*
X-465511Y-12814515D01*
X-485166Y-12857553D01*
X-505647Y-13000005D01*
X-505647Y-13000010D01*
X-485166Y-13142462D01*
X-485165Y-13142463D01*
X-485165Y-13142465D01*
X-425377Y-13273381D01*
X-331128Y-13382151D01*
X-210053Y-13459961D01*
X-94795Y-13493803D01*
X-71965Y-13500507D01*
X-71963Y-13500507D01*
X-71961Y-13500508D01*
X-71960Y-13500508D01*
X71960Y-13500508D01*
X71961Y-13500508D01*
X71963Y-13500507D01*
X71965Y-13500507D01*
X94795Y-13493803D01*
X210053Y-13459961D01*
X331128Y-13382151D01*
X425377Y-13273381D01*
X485165Y-13142465D01*
X485165Y-13142463D01*
X485166Y-13142462D01*
X505647Y-13000010D01*
X505647Y-13000005D01*
X485166Y-12857553D01*
X465511Y-12814515D01*
X425377Y-12726635D01*
X419204Y-12719511D01*
X331131Y-12617868D01*
X331129Y-12617867D01*
X331128Y-12617865D01*
X323006Y-12612645D01*
X301619Y-12581838D01*
X300500Y-12571425D01*
X300500Y-11111907D01*
X281467Y-11040880D01*
X280021Y-11035482D01*
X280020Y-11035480D01*
X280020Y-11035479D01*
X240459Y-10966959D01*
X-1716959Y-9009541D01*
X-1716959Y-9009540D01*
X-1785480Y-8969979D01*
X-1861907Y-8949500D01*
X-1861909Y-8949500D01*
X-3788091Y-8949500D01*
X-3788093Y-8949500D01*
X-3864518Y-8969979D01*
X-3864520Y-8969979D01*
X-3933040Y-9009540D01*
X-4340459Y-9416959D01*
X-4380020Y-9485479D01*
X-4380020Y-9485480D01*
X-4380021Y-9485482D01*
X-4388196Y-9515991D01*
X-4400500Y-9561907D01*
X-4400500Y-9561909D01*
X-4400500Y-10138091D01*
X-4380021Y-10214518D01*
X-4352805Y-10261658D01*
X-4340460Y-10283040D01*
X-3118464Y-11505034D01*
X-3104113Y-11539681D01*
X-3118465Y-11574329D01*
X-3143553Y-11587739D01*
X-3182495Y-11595485D01*
X-3223226Y-11622701D01*
X-3260008Y-11630017D01*
X-3277672Y-11622701D01*
X-3317700Y-11595955D01*
X-3397915Y-11580000D01*
X-3400000Y-11580000D01*
X-3400000Y-14080000D01*
X-3397915Y-14080000D01*
X-3317698Y-14064044D01*
X-3277673Y-14037299D01*
X-3240891Y-14029981D01*
X-3223228Y-14037297D01*
X-3182495Y-14064515D01*
X-3102133Y-14080500D01*
X-2897868Y-14080499D01*
X-2859056Y-14072779D01*
X-2822277Y-14080096D01*
X-2801441Y-14111279D01*
X-2800500Y-14120838D01*
X-2800500Y-14855233D01*
X-2814852Y-14889881D01*
X-3385119Y-15460148D01*
X-3419767Y-15474500D01*
X-3674564Y-15474500D01*
X-3750987Y-15494978D01*
X-3750991Y-15494979D01*
X-3791576Y-15518412D01*
X-3802180Y-15524534D01*
X-3819507Y-15534537D01*
X-3819513Y-15534542D01*
X-4177592Y-15892621D01*
X-4212240Y-15906973D01*
X-4223966Y-15905549D01*
X-4349941Y-15874500D01*
X-4349944Y-15874500D01*
X-4520056Y-15874500D01*
X-4685224Y-15915209D01*
X-4835843Y-15994261D01*
X-4835844Y-15994262D01*
X-4835852Y-15994266D01*
X-4941816Y-16088142D01*
X-4963183Y-16107071D01*
X-5029978Y-16203839D01*
X-5061472Y-16224201D01*
X-5098139Y-16216330D01*
X-5110630Y-16203839D01*
X-5177192Y-16107406D01*
X-5304435Y-15994678D01*
X-5454952Y-15915682D01*
X-5454950Y-15915682D01*
X-5604999Y-15878697D01*
X-5605000Y-15878698D01*
X-5605000Y-16265330D01*
X-5662213Y-16250000D01*
X-5747787Y-16250000D01*
X-5805000Y-16265330D01*
X-5805000Y-15878697D01*
X-5955048Y-15915682D01*
X-6105564Y-15994678D01*
X-6232807Y-16107406D01*
X-6329370Y-16247303D01*
X-6389650Y-16406247D01*
X-6397998Y-16475000D01*
X-6014669Y-16475000D01*
X-6030000Y-16532213D01*
X-6030000Y-16617787D01*
X-6014669Y-16675000D01*
X-6397999Y-16675000D01*
X-6389650Y-16743752D01*
X-6329370Y-16902696D01*
X-6232807Y-17042593D01*
X-6105564Y-17155321D01*
X-5955047Y-17234317D01*
X-5955049Y-17234317D01*
X-5805000Y-17271301D01*
X-5805000Y-16884669D01*
X-5747787Y-16900000D01*
X-5662213Y-16900000D01*
X-5605000Y-16884669D01*
X-5605000Y-17271301D01*
X-5604999Y-17271301D01*
X-5454951Y-17234317D01*
X-5304435Y-17155321D01*
X-5177192Y-17042593D01*
X-5110630Y-16946160D01*
X-5079137Y-16925798D01*
X-5042469Y-16933669D01*
X-5029978Y-16946159D01*
X-4963183Y-17042929D01*
X-4835852Y-17155734D01*
X-4685225Y-17234790D01*
X-4520056Y-17275500D01*
X-4349944Y-17275500D01*
X-4184775Y-17234790D01*
X-4034156Y-17155738D01*
X-4034157Y-17155738D01*
X-4034148Y-17155734D01*
X-3906817Y-17042929D01*
X-3840326Y-16946601D01*
X-3808832Y-16926239D01*
X-3772165Y-16934110D01*
X-3759673Y-16946601D01*
X-3693183Y-17042929D01*
X-3565852Y-17155734D01*
X-3415225Y-17234790D01*
X-3250056Y-17275500D01*
X-3079944Y-17275500D01*
X-2914775Y-17234790D01*
X-2764156Y-17155738D01*
X-2764157Y-17155738D01*
X-2764148Y-17155734D01*
X-2636817Y-17042929D01*
X-2570326Y-16946601D01*
X-2538832Y-16926239D01*
X-2502165Y-16934110D01*
X-2489673Y-16946601D01*
X-2423183Y-17042929D01*
X-2295852Y-17155734D01*
X-2145225Y-17234790D01*
X-1980056Y-17275500D01*
X-1809944Y-17275500D01*
X-1644775Y-17234790D01*
X-1494156Y-17155738D01*
X-1494157Y-17155738D01*
X-1494148Y-17155734D01*
X-1366817Y-17042929D01*
X-1300326Y-16946601D01*
X-1268832Y-16926239D01*
X-1232165Y-16934110D01*
X-1219673Y-16946601D01*
X-1153183Y-17042929D01*
X-1025852Y-17155734D01*
X-875225Y-17234790D01*
X-710056Y-17275500D01*
X-539944Y-17275500D01*
X-374775Y-17234790D01*
X-224156Y-17155738D01*
X-224157Y-17155738D01*
X-224148Y-17155734D01*
X-96817Y-17042929D01*
X-30326Y-16946601D01*
X1168Y-16926239D01*
X37835Y-16934110D01*
X50326Y-16946601D01*
X116817Y-17042929D01*
X244148Y-17155734D01*
X394775Y-17234790D01*
X559944Y-17275500D01*
X730056Y-17275500D01*
X895225Y-17234790D01*
X1045852Y-17155734D01*
X1173183Y-17042929D01*
X1239674Y-16946601D01*
X1271168Y-16926239D01*
X1307835Y-16934110D01*
X1320326Y-16946601D01*
X1386817Y-17042929D01*
X1514148Y-17155734D01*
X1664775Y-17234790D01*
X1829944Y-17275500D01*
X2000056Y-17275500D01*
X2165225Y-17234790D01*
X2315852Y-17155734D01*
X2443183Y-17042929D01*
X2509674Y-16946601D01*
X2541168Y-16926239D01*
X2577835Y-16934110D01*
X2590326Y-16946601D01*
X2656817Y-17042929D01*
X2784148Y-17155734D01*
X2934775Y-17234790D01*
X3099944Y-17275500D01*
X3270056Y-17275500D01*
X3435225Y-17234790D01*
X3585852Y-17155734D01*
X3713183Y-17042929D01*
X3779674Y-16946601D01*
X3811168Y-16926239D01*
X3847835Y-16934110D01*
X3860326Y-16946601D01*
X3926817Y-17042929D01*
X4054148Y-17155734D01*
X4204775Y-17234790D01*
X4369944Y-17275500D01*
X4540056Y-17275500D01*
X4705225Y-17234790D01*
X4855852Y-17155734D01*
X4945649Y-17076180D01*
X4981101Y-17063947D01*
X5014819Y-17080365D01*
X5026200Y-17103298D01*
X5036132Y-17153229D01*
X5036132Y-17153230D01*
X5036133Y-17153231D01*
X5037808Y-17155738D01*
X5080447Y-17219552D01*
X5102545Y-17234317D01*
X5146769Y-17263867D01*
X5205252Y-17275500D01*
X5205255Y-17275500D01*
X6244745Y-17275500D01*
X6244748Y-17275500D01*
X6303231Y-17263867D01*
X6369552Y-17219552D01*
X6413867Y-17153231D01*
X6425500Y-17094748D01*
X6425500Y-16055252D01*
X6413867Y-15996769D01*
X6382845Y-15950342D01*
X6369552Y-15930447D01*
X6329795Y-15903882D01*
X6303231Y-15886133D01*
X6244748Y-15874500D01*
X6244745Y-15874500D01*
X6060168Y-15874500D01*
X6025520Y-15860148D01*
X6012838Y-15838182D01*
X6005022Y-15809012D01*
X6005021Y-15809010D01*
X5965459Y-15740488D01*
X5118684Y-14893713D01*
X8649500Y-14893713D01*
X8649500Y-15106286D01*
X8682753Y-15316240D01*
X8682754Y-15316243D01*
X8748443Y-15518412D01*
X8844947Y-15707813D01*
X8844952Y-15707821D01*
X8857049Y-15724471D01*
X8969100Y-15878697D01*
X8969897Y-15879793D01*
X8969901Y-15879798D01*
X9120202Y-16030099D01*
X9120206Y-16030102D01*
X9120208Y-16030104D01*
X9185972Y-16077884D01*
X9273748Y-16141657D01*
X9292184Y-16155051D01*
X9481588Y-16251557D01*
X9683757Y-16317246D01*
X9893713Y-16350500D01*
X9893714Y-16350500D01*
X10106286Y-16350500D01*
X10106287Y-16350500D01*
X10316243Y-16317246D01*
X10518412Y-16251557D01*
X10707816Y-16155051D01*
X10879792Y-16030104D01*
X10879795Y-16030100D01*
X10879798Y-16030099D01*
X11030099Y-15879798D01*
X11030100Y-15879795D01*
X11030104Y-15879792D01*
X11155051Y-15707816D01*
X11251557Y-15518412D01*
X11317246Y-15316243D01*
X11350500Y-15106287D01*
X11350500Y-14893713D01*
X11317246Y-14683757D01*
X11251557Y-14481588D01*
X11155051Y-14292184D01*
X11030104Y-14120208D01*
X11030102Y-14120206D01*
X11030099Y-14120202D01*
X10879798Y-13969901D01*
X10879793Y-13969897D01*
X10707821Y-13844952D01*
X10707813Y-13844947D01*
X10518413Y-13748443D01*
X10316243Y-13682754D01*
X10316240Y-13682753D01*
X10154957Y-13657208D01*
X10106287Y-13649500D01*
X9893713Y-13649500D01*
X9854202Y-13655757D01*
X9683759Y-13682753D01*
X9683756Y-13682754D01*
X9481586Y-13748443D01*
X9292186Y-13844947D01*
X9292178Y-13844952D01*
X9120206Y-13969897D01*
X8969897Y-14120206D01*
X8844952Y-14292178D01*
X8844947Y-14292186D01*
X8748443Y-14481586D01*
X8682754Y-14683756D01*
X8682753Y-14683759D01*
X8649500Y-14893713D01*
X5118684Y-14893713D01*
X4814852Y-14589881D01*
X4800500Y-14555233D01*
X4800500Y-14458265D01*
X4808757Y-14431043D01*
X4834515Y-14392495D01*
X4850500Y-14312133D01*
X4850499Y-13557868D01*
X4834515Y-13477505D01*
X4808757Y-13438956D01*
X4800500Y-13411734D01*
X4800500Y-13208265D01*
X4808758Y-13181042D01*
X4834515Y-13142495D01*
X4850500Y-13062133D01*
X4850499Y-12307868D01*
X4834515Y-12227505D01*
X4808757Y-12188956D01*
X4800500Y-12161734D01*
X4800500Y-7144766D01*
X4814851Y-7110119D01*
X5910118Y-6014851D01*
X5944766Y-6000500D01*
X6071960Y-6000500D01*
X6071961Y-6000500D01*
X6071963Y-6000499D01*
X6071965Y-6000499D01*
X6094795Y-5993795D01*
X6210053Y-5959953D01*
X6331128Y-5882143D01*
X6425377Y-5773373D01*
X6485165Y-5642457D01*
X6485165Y-5642455D01*
X6485166Y-5642454D01*
X6505647Y-5500002D01*
X6505647Y-5499997D01*
X6485166Y-5357545D01*
X6462331Y-5307545D01*
X6425377Y-5226627D01*
X6410571Y-5209540D01*
X6331128Y-5117857D01*
X6210053Y-5040047D01*
X6210050Y-5040046D01*
X6071965Y-4999500D01*
X6071961Y-4999500D01*
X5928039Y-4999500D01*
X5928034Y-4999500D01*
X5789949Y-5040046D01*
X5668871Y-5117857D01*
X5574625Y-5226623D01*
X5574624Y-5226625D01*
X5514833Y-5357545D01*
X5494353Y-5499997D01*
X5494353Y-5500001D01*
X5501003Y-5546256D01*
X5491728Y-5582594D01*
X5487150Y-5587877D01*
X4384148Y-6690880D01*
X4349500Y-6705232D01*
X4314852Y-6690880D01*
X4300500Y-6656232D01*
X4300500Y-6295056D01*
X4286972Y-6244573D01*
X4280021Y-6218631D01*
X4280020Y-6218629D01*
X4280020Y-6218628D01*
X4240459Y-6150108D01*
X3962848Y-5872497D01*
X3948496Y-5837849D01*
X3948993Y-5830890D01*
X3955647Y-5784620D01*
X3955647Y-5784618D01*
X3935166Y-5642165D01*
X3930751Y-5632499D01*
X3875377Y-5511247D01*
X3865633Y-5500002D01*
X3781128Y-5402477D01*
X3734369Y-5372427D01*
X3660053Y-5324667D01*
X3660050Y-5324666D01*
X3521965Y-5284120D01*
X3521961Y-5284120D01*
X3378039Y-5284120D01*
X3378034Y-5284120D01*
X3239949Y-5324666D01*
X3175991Y-5365769D01*
X3139084Y-5372427D01*
X3108278Y-5351038D01*
X3100500Y-5324547D01*
X3100500Y-2344767D01*
X3114852Y-2310119D01*
X9910119Y4485148D01*
X9944767Y4499500D01*
X10071965Y4499500D01*
X10210050Y4540046D01*
X10210053Y4540047D01*
X10331128Y4617857D01*
X10425377Y4726627D01*
X10485165Y4857543D01*
X10485166Y4857545D01*
X10505647Y4999997D01*
X10505647Y5000002D01*
X10485166Y5142454D01*
X10485165Y5142457D01*
X10425377Y5273373D01*
X10331128Y5382143D01*
X10210053Y5459953D01*
X10075367Y5499500D01*
X10071965Y5500499D01*
X10071963Y5500499D01*
X10071961Y5500500D01*
X9928039Y5500500D01*
X9928037Y5500499D01*
X9928034Y5500499D01*
X9875754Y5485148D01*
X9789947Y5459953D01*
X9668872Y5382143D01*
X9668871Y5382142D01*
X9574625Y5273376D01*
X9574624Y5273374D01*
X9574623Y5273373D01*
X9546935Y5212746D01*
X9514833Y5142454D01*
X9494353Y5000002D01*
X9494353Y4999998D01*
X9501003Y4953742D01*
X9491728Y4917404D01*
X9487150Y4912121D01*
X2559541Y-2015488D01*
X2559540Y-2015488D01*
X2519979Y-2084008D01*
X2519979Y-2084010D01*
X2499500Y-2160436D01*
X2499500Y-9439563D01*
X2519978Y-9515987D01*
X2519979Y-9515991D01*
X2539904Y-9550500D01*
X2546490Y-9561907D01*
X2559537Y-9584507D01*
X2559542Y-9584513D01*
X2822982Y-9847953D01*
X2837334Y-9882601D01*
X2822982Y-9917249D01*
X2788334Y-9931601D01*
X2774529Y-9929616D01*
X2671965Y-9899500D01*
X2671961Y-9899500D01*
X2528039Y-9899500D01*
X2528034Y-9899500D01*
X2389949Y-9940046D01*
X2268871Y-10017857D01*
X2174625Y-10126623D01*
X2174624Y-10126625D01*
X2144072Y-10193524D01*
X2116623Y-10219079D01*
X2079144Y-10217740D01*
X2053589Y-10190291D01*
X2050500Y-10173168D01*
X2050500Y789563D01*
X2046171Y805713D01*
X2030021Y865989D01*
X1990460Y934511D01*
X1934511Y990460D01*
X-2987150Y5912121D01*
X-3001502Y5946769D01*
X-3001003Y5953742D01*
X-2994353Y5999998D01*
X-2994353Y6000002D01*
X-3014833Y6142454D01*
X-3046935Y6212746D01*
X-3074623Y6273373D01*
X-3074624Y6273374D01*
X-3074625Y6273376D01*
X-3168871Y6382142D01*
X-3168872Y6382143D01*
X-3289947Y6459953D01*
X-3366785Y6482514D01*
X-3428034Y6500499D01*
X-3428037Y6500499D01*
X-3428039Y6500500D01*
X-3571961Y6500500D01*
X-3571963Y6500499D01*
X-3571965Y6500499D01*
X-3594795Y6493795D01*
X-3710053Y6459953D01*
X-3831128Y6382143D01*
X-3925377Y6273373D01*
X-3985165Y6142457D01*
X-3985166Y6142454D01*
X-4005647Y6000002D01*
X-4005647Y5999997D01*
X-3985166Y5857545D01*
X-3985165Y5857543D01*
X-3925377Y5726627D01*
X-3831128Y5617857D01*
X-3710053Y5540047D01*
X-3710050Y5540046D01*
X-3571965Y5499500D01*
X-3444767Y5499500D01*
X-3410119Y5485148D01*
X1435148Y639881D01*
X1449500Y605233D01*
X1449500Y-5906233D01*
X1435148Y-5940881D01*
X1400500Y-5955233D01*
X1365852Y-5940881D01*
X-9487150Y4912121D01*
X-9501502Y4946769D01*
X-9501003Y4953742D01*
X-9494353Y4999998D01*
X-9494353Y5000002D01*
X-9514833Y5142454D01*
X-9546935Y5212746D01*
X-9574623Y5273373D01*
X-9574624Y5273374D01*
X-9574625Y5273376D01*
X-9668871Y5382142D01*
X-9668872Y5382143D01*
X-9789947Y5459953D01*
X-9875754Y5485148D01*
X-9928034Y5500499D01*
X-9928037Y5500499D01*
X-9928039Y5500500D01*
X-10071961Y5500500D01*
X-10071963Y5500499D01*
X-10071965Y5500499D01*
X-10075367Y5499500D01*
X-10210053Y5459953D01*
X-10331128Y5382143D01*
X-10425377Y5273373D01*
X-10485165Y5142457D01*
X-10485166Y5142454D01*
X-10505647Y5000002D01*
X-11499500Y5000002D01*
X-11499500Y15106287D01*
X-11350500Y15106287D01*
X-11350500Y14893713D01*
X-11317246Y14683757D01*
X-11251557Y14481588D01*
X-11155051Y14292184D01*
X-11030104Y14120208D01*
X-11030102Y14120206D01*
X-11030099Y14120202D01*
X-10879798Y13969901D01*
X-10879793Y13969897D01*
X-10707821Y13844952D01*
X-10707813Y13844947D01*
X-10518413Y13748443D01*
X-10316243Y13682754D01*
X-10316240Y13682753D01*
X-10154957Y13657208D01*
X-10106287Y13649500D01*
X-10106286Y13649500D01*
X-9893714Y13649500D01*
X-9893713Y13649500D01*
X-9854202Y13655757D01*
X-9683759Y13682753D01*
X-9683756Y13682754D01*
X-9481586Y13748443D01*
X-9292186Y13844947D01*
X-9292178Y13844952D01*
X-9120206Y13969897D01*
X-8969897Y14120206D01*
X-8844952Y14292178D01*
X-8844947Y14292186D01*
X-8748443Y14481586D01*
X-8682754Y14683756D01*
X-8682753Y14683759D01*
X-8649500Y14893713D01*
X-8649500Y15106286D01*
X8649500Y15106286D01*
X8649500Y14893713D01*
X8682753Y14683759D01*
X8682754Y14683756D01*
X8748443Y14481586D01*
X8844947Y14292186D01*
X8844952Y14292178D01*
X8969897Y14120206D01*
X9120206Y13969897D01*
X9292178Y13844952D01*
X9292186Y13844947D01*
X9481586Y13748443D01*
X9683756Y13682754D01*
X9683759Y13682753D01*
X9854202Y13655757D01*
X9893713Y13649500D01*
X9893714Y13649500D01*
X10106286Y13649500D01*
X10106287Y13649500D01*
X10154957Y13657208D01*
X10316240Y13682753D01*
X10316243Y13682754D01*
X10518413Y13748443D01*
X10707813Y13844947D01*
X10707821Y13844952D01*
X10879793Y13969897D01*
X10879798Y13969901D01*
X11030099Y14120202D01*
X11030102Y14120206D01*
X11030104Y14120208D01*
X11155051Y14292184D01*
X11251557Y14481588D01*
X11317246Y14683757D01*
X11350500Y14893713D01*
X11350500Y15106287D01*
X11317246Y15316243D01*
X11251557Y15518412D01*
X11155051Y15707816D01*
X11030104Y15879792D01*
X11030100Y15879795D01*
X11030099Y15879798D01*
X10879798Y16030099D01*
X10879795Y16030100D01*
X10879792Y16030104D01*
X10707816Y16155051D01*
X10518412Y16251557D01*
X10316243Y16317246D01*
X10106287Y16350500D01*
X9893713Y16350500D01*
X9683757Y16317246D01*
X9481588Y16251557D01*
X9292184Y16155051D01*
X9120208Y16030104D01*
X9120206Y16030102D01*
X9120202Y16030099D01*
X8969901Y15879798D01*
X8969897Y15879793D01*
X8844952Y15707821D01*
X8844947Y15707813D01*
X8748443Y15518413D01*
X8682754Y15316243D01*
X8682753Y15316240D01*
X8649500Y15106286D01*
X-8649500Y15106286D01*
X-8682753Y15316240D01*
X-8682754Y15316243D01*
X-8748443Y15518413D01*
X-8844947Y15707813D01*
X-8844952Y15707821D01*
X-8969897Y15879793D01*
X-8969901Y15879798D01*
X-9120202Y16030099D01*
X-9120206Y16030102D01*
X-9120208Y16030104D01*
X-9292184Y16155051D01*
X-9481588Y16251557D01*
X-9683757Y16317246D01*
X-9893713Y16350500D01*
X-10106287Y16350500D01*
X-10316243Y16317246D01*
X-10518412Y16251557D01*
X-10707816Y16155051D01*
X-10879792Y16030104D01*
X-10879795Y16030100D01*
X-10879798Y16030099D01*
X-11030099Y15879798D01*
X-11030100Y15879795D01*
X-11030104Y15879792D01*
X-11155051Y15707816D01*
X-11251557Y15518412D01*
X-11317246Y15316243D01*
X-11350500Y15106287D01*
X-11499500Y15106287D01*
X-11499500Y16450500D01*
X-11485148Y16485148D01*
X-11450500Y16499500D01*
X11450500Y16499500D01*
X11485148Y16485148D01*
G37*
%TD.AperFunction*%
%TD*%
%TA.AperFunction,NonConductor*%
G36*
X-2011589Y-9564852D02*
G01*
X-1634206Y-9942234D01*
X-1619855Y-9976881D01*
X-1634207Y-10011529D01*
X-1655050Y-10023896D01*
X-1710050Y-10040046D01*
X-1710053Y-10040047D01*
X-1831128Y-10117857D01*
X-1917676Y-10217740D01*
X-1925377Y-10226627D01*
X-1951140Y-10283040D01*
X-1985166Y-10357545D01*
X-2005647Y-10499997D01*
X-2005647Y-10500001D01*
X-1985166Y-10642454D01*
X-1985165Y-10642455D01*
X-1985165Y-10642457D01*
X-1925377Y-10773373D01*
X-1831128Y-10882143D01*
X-1823008Y-10887361D01*
X-1801620Y-10918165D01*
X-1800500Y-10928582D01*
X-1800500Y-11006232D01*
X-1814852Y-11040880D01*
X-1849500Y-11055232D01*
X-1884148Y-11040880D01*
X-2987150Y-9937877D01*
X-3001502Y-9903229D01*
X-3001003Y-9896256D01*
X-2994353Y-9850001D01*
X-2994353Y-9849997D01*
X-3014833Y-9707545D01*
X-3054881Y-9619856D01*
X-3056220Y-9582377D01*
X-3030665Y-9554928D01*
X-3010309Y-9550500D01*
X-2046238Y-9550500D01*
X-2011589Y-9564852D01*
G37*
%TD.AperFunction*%
%TA.AperFunction,NonConductor*%
G36*
X4839148Y-15464119D02*
G01*
X5177360Y-15802331D01*
X5191712Y-15836979D01*
X5177360Y-15871627D01*
X5152276Y-15885037D01*
X5146770Y-15886132D01*
X5080447Y-15930447D01*
X5036132Y-15996770D01*
X5026200Y-16046702D01*
X5005365Y-16077884D01*
X4968582Y-16085200D01*
X4945649Y-16073819D01*
X4943284Y-16071724D01*
X4855852Y-15994266D01*
X4855844Y-15994262D01*
X4855843Y-15994261D01*
X4781728Y-15955361D01*
X4757718Y-15926551D01*
X4755500Y-15911974D01*
X4755500Y-15498767D01*
X4769852Y-15464119D01*
X4804500Y-15449767D01*
X4839148Y-15464119D01*
G37*
%TD.AperFunction*%
%TA.AperFunction,NonConductor*%
G36*
X3884148Y-15309119D02*
G01*
X4140148Y-15565119D01*
X4154500Y-15599767D01*
X4154500Y-15911974D01*
X4140148Y-15946622D01*
X4128272Y-15955361D01*
X4054156Y-15994261D01*
X4054151Y-15994264D01*
X4054148Y-15994266D01*
X4013695Y-16030104D01*
X3926818Y-16107070D01*
X3889826Y-16160661D01*
X3858332Y-16181022D01*
X3821664Y-16173151D01*
X3801303Y-16141657D01*
X3800500Y-16132825D01*
X3800500Y-15343767D01*
X3814852Y-15309119D01*
X3849500Y-15294767D01*
X3884148Y-15309119D01*
G37*
%TD.AperFunction*%
M02*
