%TF.GenerationSoftware,KiCad,Pcbnew,8.0.8*%
%TF.CreationDate,2025-02-12T19:32:24+03:00*%
%TF.ProjectId,Lower_keyboard,4c6f7765-725f-46b6-9579-626f6172642e,rev?*%
%TF.SameCoordinates,Original*%
%TF.FileFunction,Soldermask,Bot*%
%TF.FilePolarity,Negative*%
%FSLAX46Y46*%
G04 Gerber Fmt 4.6, Leading zero omitted, Abs format (unit mm)*
G04 Created by KiCad (PCBNEW 8.0.8) date 2025-02-12 19:32:24*
%MOMM*%
%LPD*%
G01*
G04 APERTURE LIST*
G04 Aperture macros list*
%AMRoundRect*
0 Rectangle with rounded corners*
0 $1 Rounding radius*
0 $2 $3 $4 $5 $6 $7 $8 $9 X,Y pos of 4 corners*
0 Add a 4 corners polygon primitive as box body*
4,1,4,$2,$3,$4,$5,$6,$7,$8,$9,$2,$3,0*
0 Add four circle primitives for the rounded corners*
1,1,$1+$1,$2,$3*
1,1,$1+$1,$4,$5*
1,1,$1+$1,$6,$7*
1,1,$1+$1,$8,$9*
0 Add four rect primitives between the rounded corners*
20,1,$1+$1,$2,$3,$4,$5,0*
20,1,$1+$1,$4,$5,$6,$7,0*
20,1,$1+$1,$6,$7,$8,$9,0*
20,1,$1+$1,$8,$9,$2,$3,0*%
G04 Aperture macros list end*
%ADD10C,2.200000*%
%ADD11RoundRect,0.075000X0.075000X-0.350000X0.075000X0.350000X-0.075000X0.350000X-0.075000X-0.350000X0*%
%ADD12R,1.000000X1.000000*%
%ADD13O,1.000000X1.000000*%
G04 APERTURE END LIST*
D10*
%TO.C,REF\u002A\u002A*%
X10000000Y15000000D03*
%TD*%
%TO.C,REF\u002A\u002A*%
X-10000000Y-15000000D03*
%TD*%
%TO.C,REF\u002A\u002A*%
X10000000Y-15000000D03*
%TD*%
%TO.C,REF\u002A\u002A*%
X-10000000Y15000000D03*
%TD*%
D11*
%TO.C,U1*%
X4500000Y-13935000D03*
X4000000Y-13935000D03*
X3500000Y-13935000D03*
X3000000Y-13935000D03*
X2500000Y-13935000D03*
X2000000Y-13935000D03*
X1500000Y-13935000D03*
X1500000Y-12685000D03*
X2000000Y-12685000D03*
X2500000Y-12685000D03*
X3000000Y-12685000D03*
X3500000Y-12685000D03*
X4000000Y-12685000D03*
X4500000Y-12685000D03*
%TD*%
%TO.C,U2*%
X-1500000Y-13455000D03*
X-2000000Y-13455000D03*
X-2500000Y-13455000D03*
X-3000000Y-13455000D03*
X-3500000Y-13455000D03*
X-4000000Y-13455000D03*
X-4500000Y-13455000D03*
X-4500000Y-12205000D03*
X-4000000Y-12205000D03*
X-3500000Y-12205000D03*
X-3000000Y-12205000D03*
X-2500000Y-12205000D03*
X-2000000Y-12205000D03*
X-1500000Y-12205000D03*
%TD*%
D12*
%TO.C,J2*%
X5725000Y-16575000D03*
D13*
X4455000Y-16575000D03*
X3185000Y-16575000D03*
X1915000Y-16575000D03*
X645000Y-16575000D03*
X-625000Y-16575000D03*
X-1895000Y-16575000D03*
X-3165000Y-16575000D03*
X-4435000Y-16575000D03*
X-5705000Y-16575000D03*
%TD*%
M02*
