%TF.GenerationSoftware,KiCad,Pcbnew,8.0.8*%
%TF.CreationDate,2025-02-12T19:32:24+03:00*%
%TF.ProjectId,Lower_keyboard,4c6f7765-725f-46b6-9579-626f6172642e,rev?*%
%TF.SameCoordinates,Original*%
%TF.FileFunction,Copper,L1,Top*%
%TF.FilePolarity,Positive*%
%FSLAX46Y46*%
G04 Gerber Fmt 4.6, Leading zero omitted, Abs format (unit mm)*
G04 Created by KiCad (PCBNEW 8.0.8) date 2025-02-12 19:32:24*
%MOMM*%
%LPD*%
G01*
G04 APERTURE LIST*
G04 Aperture macros list*
%AMRotRect*
0 Rectangle, with rotation*
0 The origin of the aperture is its center*
0 $1 length*
0 $2 width*
0 $3 Rotation angle, in degrees counterclockwise*
0 Add horizontal line*
21,1,$1,$2,0,0,$3*%
G04 Aperture macros list end*
%TA.AperFunction,SMDPad,CuDef*%
%ADD10RotRect,1.000000X2.000000X135.000000*%
%TD*%
%TA.AperFunction,SMDPad,CuDef*%
%ADD11RotRect,1.000000X2.000000X225.000000*%
%TD*%
%TA.AperFunction,SMDPad,CuDef*%
%ADD12R,1.000000X2.000000*%
%TD*%
%TA.AperFunction,SMDPad,CuDef*%
%ADD13R,2.000000X1.000000*%
%TD*%
%TA.AperFunction,ComponentPad*%
%ADD14R,1.000000X1.000000*%
%TD*%
%TA.AperFunction,ComponentPad*%
%ADD15O,1.000000X1.000000*%
%TD*%
%TA.AperFunction,ViaPad*%
%ADD16C,0.600000*%
%TD*%
%TA.AperFunction,Conductor*%
%ADD17C,0.200000*%
%TD*%
G04 APERTURE END LIST*
D10*
%TO.P,SW9,1,1*%
%TO.N,SW9*%
X4900126Y-13849874D03*
%TO.P,SW9,2,2*%
%TO.N,GND*%
X9849874Y-8900126D03*
%TD*%
D11*
%TO.P,SW3,1,1*%
%TO.N,SW3*%
X10524874Y7450126D03*
%TO.P,SW3,2,2*%
%TO.N,GND*%
X5575126Y12399874D03*
%TD*%
D12*
%TO.P,SW5,1,1*%
%TO.N,SW5*%
X0Y-3950000D03*
%TO.P,SW5,2,2*%
%TO.N,GND*%
X0Y3050000D03*
%TD*%
D13*
%TO.P,SW2,1,1*%
%TO.N,SW2*%
X-3475000Y8250000D03*
%TO.P,SW2,2,2*%
%TO.N,GND*%
X3525000Y8250000D03*
%TD*%
D12*
%TO.P,SW6,1,1*%
%TO.N,SW6*%
X6110000Y-3510000D03*
%TO.P,SW6,2,2*%
%TO.N,GND*%
X6110000Y3490000D03*
%TD*%
%TO.P,SW4,1,1*%
%TO.N,SW4*%
X-6050000Y-3525000D03*
%TO.P,SW4,2,2*%
%TO.N,GND*%
X-6050000Y3475000D03*
%TD*%
D11*
%TO.P,SW7,1,1*%
%TO.N,SW7*%
X-4865126Y-13854874D03*
%TO.P,SW7,2,2*%
%TO.N,GND*%
X-9814874Y-8905126D03*
%TD*%
D13*
%TO.P,SW8,1,1*%
%TO.N,SW8*%
X-3490000Y-8280000D03*
%TO.P,SW8,2,2*%
%TO.N,GND*%
X3510000Y-8280000D03*
%TD*%
D10*
%TO.P,SW1,1,1*%
%TO.N,SW1*%
X-10524874Y7450126D03*
%TO.P,SW1,2,2*%
%TO.N,GND*%
X-5575126Y12399874D03*
%TD*%
D14*
%TO.P,J2,1,Pin_1*%
%TO.N,SW6*%
X5725000Y-16575000D03*
D15*
%TO.P,J2,2,Pin_2*%
%TO.N,SW5*%
X4455000Y-16575000D03*
%TO.P,J2,3,Pin_3*%
%TO.N,SW3*%
X3185000Y-16575000D03*
%TO.P,J2,4,Pin_4*%
%TO.N,SW4*%
X1915000Y-16575000D03*
%TO.P,J2,5,Pin_5*%
%TO.N,SW2*%
X645000Y-16575000D03*
%TO.P,J2,6,Pin_6*%
%TO.N,SW1*%
X-625000Y-16575000D03*
%TO.P,J2,7,Pin_7*%
%TO.N,SW7*%
X-1895000Y-16575000D03*
%TO.P,J2,8,Pin_8*%
%TO.N,SW8*%
X-3165000Y-16575000D03*
%TO.P,J2,9,Pin_9*%
%TO.N,SW9*%
X-4435000Y-16575000D03*
%TO.P,J2,10,Pin_10*%
%TO.N,GND*%
X-5705000Y-16575000D03*
%TD*%
D16*
%TO.N,GND*%
X0Y13800000D03*
X-200000Y-14600000D03*
X-7000000Y-15600000D03*
X-7000000Y-16600000D03*
X-5800000Y-15400000D03*
X-4400000Y11800000D03*
X-10800000Y-9600000D03*
X2340380Y-15140380D03*
X-3200000Y-14600000D03*
X1400000Y3400000D03*
X11000000Y-9600000D03*
X-7200000Y3800000D03*
X2350000Y-11719683D03*
X-4000000Y-11200000D03*
X4200000Y13600000D03*
X3400000Y-7200000D03*
X3600000Y9600000D03*
X7200000Y3800000D03*
%TO.N,SW3*%
X10000000Y5000000D03*
%TO.N,SW1*%
X-10000000Y5000000D03*
%TO.N,SW4*%
X-6050000Y-5450000D03*
X2600000Y-10400000D03*
X200000Y-10000000D03*
%TO.N,SW9*%
X0Y-13000008D03*
%TO.N,SW7*%
X-1500000Y-10500000D03*
%TO.N,SW6*%
X6000000Y-5500000D03*
%TO.N,SW5*%
X3450000Y-5784620D03*
%TO.N,SW2*%
X-3500000Y6000000D03*
%TO.N,SW8*%
X-3500000Y-9850000D03*
%TD*%
D17*
%TO.N,SW3*%
X10524874Y5524874D02*
X10000000Y5000000D01*
X10524874Y7450126D02*
X10524874Y5524874D01*
%TO.N,SW1*%
X-10524874Y5524874D02*
X-10000000Y5000000D01*
X-10524874Y7450126D02*
X-10524874Y5524874D01*
%TO.N,SW4*%
X-6000000Y-5500000D02*
X-6050000Y-5450000D01*
X2200000Y-10000000D02*
X2600000Y-10400000D01*
X-6050000Y-3525000D02*
X-6050000Y-5450000D01*
X200000Y-10000000D02*
X2200000Y-10000000D01*
%TO.N,SW9*%
X849866Y-13849874D02*
X0Y-13000008D01*
X4900126Y-13849874D02*
X849866Y-13849874D01*
%TO.N,SW7*%
X-5500000Y-10500000D02*
X-1500000Y-10500000D01*
X-6000000Y-12720000D02*
X-6000000Y-11000000D01*
X-6000000Y-11000000D02*
X-5500000Y-10500000D01*
X-4865126Y-13854874D02*
X-6000000Y-12720000D01*
%TO.N,SW6*%
X6110000Y-3510000D02*
X6110000Y-5390000D01*
X6110000Y-5390000D02*
X6000000Y-5500000D01*
%TO.N,SW5*%
X1615380Y-3950000D02*
X3450000Y-5784620D01*
X0Y-3950000D02*
X1615380Y-3950000D01*
%TO.N,SW2*%
X-3475000Y8250000D02*
X-3475000Y6025000D01*
X-3475000Y6025000D02*
X-3500000Y6000000D01*
%TO.N,SW8*%
X-3490000Y-9840000D02*
X-3500000Y-9850000D01*
X-3490000Y-8280000D02*
X-3490000Y-9840000D01*
%TD*%
%TA.AperFunction,Conductor*%
%TO.N,GND*%
G36*
X11485148Y16485148D02*
G01*
X11499500Y16450500D01*
X11499500Y7584453D01*
X11485148Y7549805D01*
X11450500Y7535453D01*
X11415852Y7549805D01*
X11034167Y7931490D01*
X10299132Y8666525D01*
X10249552Y8699653D01*
X10171321Y8715214D01*
X10093089Y8699653D01*
X10093088Y8699652D01*
X10043512Y8666527D01*
X9308472Y7931487D01*
X9275347Y7881911D01*
X9259786Y7803679D01*
X9275347Y7725447D01*
X9308475Y7675867D01*
X10210022Y6774321D01*
X10224374Y6739673D01*
X10224374Y5669641D01*
X10210022Y5634993D01*
X10089881Y5514852D01*
X10055233Y5500500D01*
X9928039Y5500500D01*
X9928037Y5500499D01*
X9928034Y5500499D01*
X9876313Y5485312D01*
X9789947Y5459953D01*
X9668872Y5382143D01*
X9668871Y5382142D01*
X9574625Y5273376D01*
X9574624Y5273374D01*
X9574623Y5273373D01*
X9546935Y5212746D01*
X9514833Y5142454D01*
X9494353Y5000002D01*
X9494353Y4999997D01*
X9514833Y4857545D01*
X9574624Y4726625D01*
X9574625Y4726623D01*
X9668871Y4617857D01*
X9789949Y4540046D01*
X9928034Y4499500D01*
X9928039Y4499500D01*
X10071965Y4499500D01*
X10210050Y4540046D01*
X10210053Y4540047D01*
X10331128Y4617857D01*
X10370587Y4663395D01*
X10425374Y4726623D01*
X10425375Y4726625D01*
X10425377Y4726627D01*
X10485165Y4857543D01*
X10485166Y4857545D01*
X10505647Y4999998D01*
X10505647Y4999999D01*
X10505647Y5000002D01*
X10498995Y5046256D01*
X10508268Y5082592D01*
X10512848Y5087877D01*
X10765333Y5340362D01*
X10804894Y5408882D01*
X10804894Y5408884D01*
X10804895Y5408885D01*
X10818579Y5459953D01*
X10825374Y5485310D01*
X10825374Y6136038D01*
X10839726Y6170686D01*
X10874374Y6185038D01*
X10878425Y6185038D01*
X10878427Y6185038D01*
X10956659Y6200599D01*
X11006235Y6233724D01*
X11415852Y6643341D01*
X11450500Y6657693D01*
X11485148Y6643341D01*
X11499500Y6608693D01*
X11499500Y-17450500D01*
X11485148Y-17485148D01*
X11450500Y-17499500D01*
X-11450500Y-17499500D01*
X-11485148Y-17485148D01*
X-11499500Y-17450500D01*
X-11499500Y-16675000D01*
X-6397999Y-16675000D01*
X-6389650Y-16743752D01*
X-6329370Y-16902696D01*
X-6232807Y-17042593D01*
X-6105564Y-17155321D01*
X-5955047Y-17234317D01*
X-5955049Y-17234317D01*
X-5805000Y-17271301D01*
X-5805000Y-16884669D01*
X-5747787Y-16900000D01*
X-5662213Y-16900000D01*
X-5605000Y-16884669D01*
X-5605000Y-17271301D01*
X-5604999Y-17271301D01*
X-5454951Y-17234317D01*
X-5304435Y-17155321D01*
X-5177192Y-17042593D01*
X-5110630Y-16946160D01*
X-5079137Y-16925798D01*
X-5042469Y-16933669D01*
X-5029978Y-16946159D01*
X-4963183Y-17042929D01*
X-4835852Y-17155734D01*
X-4685225Y-17234790D01*
X-4520056Y-17275500D01*
X-4349944Y-17275500D01*
X-4184775Y-17234790D01*
X-4034156Y-17155738D01*
X-4034157Y-17155738D01*
X-4034148Y-17155734D01*
X-3906817Y-17042929D01*
X-3840326Y-16946601D01*
X-3808832Y-16926239D01*
X-3772165Y-16934110D01*
X-3759673Y-16946601D01*
X-3693183Y-17042929D01*
X-3565852Y-17155734D01*
X-3415225Y-17234790D01*
X-3250056Y-17275500D01*
X-3079944Y-17275500D01*
X-2914775Y-17234790D01*
X-2764156Y-17155738D01*
X-2764157Y-17155738D01*
X-2764148Y-17155734D01*
X-2636817Y-17042929D01*
X-2570326Y-16946601D01*
X-2538832Y-16926239D01*
X-2502165Y-16934110D01*
X-2489673Y-16946601D01*
X-2423183Y-17042929D01*
X-2295852Y-17155734D01*
X-2145225Y-17234790D01*
X-1980056Y-17275500D01*
X-1809944Y-17275500D01*
X-1644775Y-17234790D01*
X-1494156Y-17155738D01*
X-1494157Y-17155738D01*
X-1494148Y-17155734D01*
X-1366817Y-17042929D01*
X-1300326Y-16946601D01*
X-1268832Y-16926239D01*
X-1232165Y-16934110D01*
X-1219673Y-16946601D01*
X-1153183Y-17042929D01*
X-1025852Y-17155734D01*
X-875225Y-17234790D01*
X-710056Y-17275500D01*
X-539944Y-17275500D01*
X-374775Y-17234790D01*
X-224156Y-17155738D01*
X-224157Y-17155738D01*
X-224148Y-17155734D01*
X-96817Y-17042929D01*
X-30326Y-16946601D01*
X1168Y-16926239D01*
X37835Y-16934110D01*
X50326Y-16946601D01*
X116817Y-17042929D01*
X244148Y-17155734D01*
X394775Y-17234790D01*
X559944Y-17275500D01*
X730056Y-17275500D01*
X895225Y-17234790D01*
X1045852Y-17155734D01*
X1173183Y-17042929D01*
X1239674Y-16946601D01*
X1271168Y-16926239D01*
X1307835Y-16934110D01*
X1320326Y-16946601D01*
X1386817Y-17042929D01*
X1514148Y-17155734D01*
X1664775Y-17234790D01*
X1829944Y-17275500D01*
X2000056Y-17275500D01*
X2165225Y-17234790D01*
X2315852Y-17155734D01*
X2443183Y-17042929D01*
X2509674Y-16946601D01*
X2541168Y-16926239D01*
X2577835Y-16934110D01*
X2590326Y-16946601D01*
X2656817Y-17042929D01*
X2784148Y-17155734D01*
X2934775Y-17234790D01*
X3099944Y-17275500D01*
X3270056Y-17275500D01*
X3435225Y-17234790D01*
X3585852Y-17155734D01*
X3713183Y-17042929D01*
X3779674Y-16946601D01*
X3811168Y-16926239D01*
X3847835Y-16934110D01*
X3860326Y-16946601D01*
X3926817Y-17042929D01*
X4054148Y-17155734D01*
X4204775Y-17234790D01*
X4369944Y-17275500D01*
X4540056Y-17275500D01*
X4705225Y-17234790D01*
X4855852Y-17155734D01*
X4945649Y-17076180D01*
X4981101Y-17063947D01*
X5014819Y-17080365D01*
X5026200Y-17103298D01*
X5036132Y-17153229D01*
X5036132Y-17153230D01*
X5036133Y-17153231D01*
X5037808Y-17155738D01*
X5080447Y-17219552D01*
X5102545Y-17234317D01*
X5146769Y-17263867D01*
X5205252Y-17275500D01*
X5205255Y-17275500D01*
X6244745Y-17275500D01*
X6244748Y-17275500D01*
X6303231Y-17263867D01*
X6369552Y-17219552D01*
X6413867Y-17153231D01*
X6425500Y-17094748D01*
X6425500Y-16055252D01*
X6413867Y-15996769D01*
X6387301Y-15957012D01*
X6369552Y-15930447D01*
X6329795Y-15903882D01*
X6303231Y-15886133D01*
X6244748Y-15874500D01*
X5205252Y-15874500D01*
X5146769Y-15886133D01*
X5080447Y-15930447D01*
X5036132Y-15996770D01*
X5026200Y-16046702D01*
X5005365Y-16077884D01*
X4968582Y-16085200D01*
X4945649Y-16073819D01*
X4855852Y-15994266D01*
X4855844Y-15994262D01*
X4855843Y-15994261D01*
X4705224Y-15915209D01*
X4540056Y-15874500D01*
X4369944Y-15874500D01*
X4204775Y-15915209D01*
X4054156Y-15994261D01*
X4054151Y-15994264D01*
X4054148Y-15994266D01*
X4054146Y-15994268D01*
X3926816Y-16107071D01*
X3860326Y-16203398D01*
X3828832Y-16223760D01*
X3792165Y-16215889D01*
X3779674Y-16203398D01*
X3713183Y-16107071D01*
X3585852Y-15994266D01*
X3585844Y-15994262D01*
X3585843Y-15994261D01*
X3435224Y-15915209D01*
X3270056Y-15874500D01*
X3099944Y-15874500D01*
X2934775Y-15915209D01*
X2784156Y-15994261D01*
X2784151Y-15994264D01*
X2784148Y-15994266D01*
X2784146Y-15994268D01*
X2656816Y-16107071D01*
X2590326Y-16203398D01*
X2558832Y-16223760D01*
X2522165Y-16215889D01*
X2509674Y-16203398D01*
X2443183Y-16107071D01*
X2315852Y-15994266D01*
X2315844Y-15994262D01*
X2315843Y-15994261D01*
X2165224Y-15915209D01*
X2000056Y-15874500D01*
X1829944Y-15874500D01*
X1664775Y-15915209D01*
X1514156Y-15994261D01*
X1514151Y-15994264D01*
X1514148Y-15994266D01*
X1514146Y-15994268D01*
X1386816Y-16107071D01*
X1320326Y-16203398D01*
X1288832Y-16223760D01*
X1252165Y-16215889D01*
X1239674Y-16203398D01*
X1173183Y-16107071D01*
X1045852Y-15994266D01*
X1045844Y-15994262D01*
X1045843Y-15994261D01*
X895224Y-15915209D01*
X730056Y-15874500D01*
X559944Y-15874500D01*
X394775Y-15915209D01*
X244156Y-15994261D01*
X244151Y-15994264D01*
X244148Y-15994266D01*
X244146Y-15994268D01*
X116816Y-16107071D01*
X50326Y-16203398D01*
X18832Y-16223760D01*
X-17835Y-16215889D01*
X-30326Y-16203398D01*
X-96816Y-16107071D01*
X-224146Y-15994268D01*
X-224144Y-15994268D01*
X-224148Y-15994266D01*
X-224151Y-15994264D01*
X-224156Y-15994261D01*
X-374775Y-15915209D01*
X-539944Y-15874500D01*
X-710056Y-15874500D01*
X-875224Y-15915209D01*
X-1025843Y-15994261D01*
X-1025844Y-15994262D01*
X-1025852Y-15994266D01*
X-1153183Y-16107071D01*
X-1219674Y-16203398D01*
X-1251168Y-16223760D01*
X-1287835Y-16215889D01*
X-1300326Y-16203398D01*
X-1366816Y-16107071D01*
X-1494146Y-15994268D01*
X-1494144Y-15994268D01*
X-1494148Y-15994266D01*
X-1494151Y-15994264D01*
X-1494156Y-15994261D01*
X-1644775Y-15915209D01*
X-1809944Y-15874500D01*
X-1980056Y-15874500D01*
X-2145224Y-15915209D01*
X-2295843Y-15994261D01*
X-2295844Y-15994262D01*
X-2295852Y-15994266D01*
X-2423183Y-16107071D01*
X-2489674Y-16203398D01*
X-2521168Y-16223760D01*
X-2557835Y-16215889D01*
X-2570326Y-16203398D01*
X-2636816Y-16107071D01*
X-2764146Y-15994268D01*
X-2764144Y-15994268D01*
X-2764148Y-15994266D01*
X-2764151Y-15994264D01*
X-2764156Y-15994261D01*
X-2914775Y-15915209D01*
X-3079944Y-15874500D01*
X-3250056Y-15874500D01*
X-3415224Y-15915209D01*
X-3565843Y-15994261D01*
X-3565844Y-15994262D01*
X-3565852Y-15994266D01*
X-3693183Y-16107071D01*
X-3759674Y-16203398D01*
X-3791168Y-16223760D01*
X-3827835Y-16215889D01*
X-3840326Y-16203398D01*
X-3906816Y-16107071D01*
X-4034146Y-15994268D01*
X-4034144Y-15994268D01*
X-4034148Y-15994266D01*
X-4034151Y-15994264D01*
X-4034156Y-15994261D01*
X-4184775Y-15915209D01*
X-4349944Y-15874500D01*
X-4520056Y-15874500D01*
X-4685224Y-15915209D01*
X-4835843Y-15994261D01*
X-4835844Y-15994262D01*
X-4835852Y-15994266D01*
X-4963183Y-16107071D01*
X-5029978Y-16203839D01*
X-5061472Y-16224201D01*
X-5098139Y-16216330D01*
X-5110630Y-16203839D01*
X-5177192Y-16107406D01*
X-5304435Y-15994678D01*
X-5454952Y-15915682D01*
X-5454950Y-15915682D01*
X-5604999Y-15878697D01*
X-5605000Y-15878698D01*
X-5605000Y-16265330D01*
X-5662213Y-16250000D01*
X-5747787Y-16250000D01*
X-5805000Y-16265330D01*
X-5805000Y-15878697D01*
X-5955048Y-15915682D01*
X-6105564Y-15994678D01*
X-6232807Y-16107406D01*
X-6329370Y-16247303D01*
X-6389650Y-16406247D01*
X-6397998Y-16475000D01*
X-6014669Y-16475000D01*
X-6030000Y-16532213D01*
X-6030000Y-16617787D01*
X-6014669Y-16675000D01*
X-6397999Y-16675000D01*
X-11499500Y-16675000D01*
X-11499500Y-14893713D01*
X-11350500Y-14893713D01*
X-11350500Y-15106287D01*
X-11317246Y-15316243D01*
X-11251557Y-15518412D01*
X-11155051Y-15707816D01*
X-11030104Y-15879792D01*
X-11030100Y-15879795D01*
X-11030099Y-15879798D01*
X-10879798Y-16030099D01*
X-10879795Y-16030100D01*
X-10879792Y-16030104D01*
X-10707816Y-16155051D01*
X-10518412Y-16251557D01*
X-10316243Y-16317246D01*
X-10106287Y-16350500D01*
X-10106286Y-16350500D01*
X-9893714Y-16350500D01*
X-9893713Y-16350500D01*
X-9683757Y-16317246D01*
X-9481588Y-16251557D01*
X-9292184Y-16155051D01*
X-9120208Y-16030104D01*
X-9120206Y-16030102D01*
X-9120202Y-16030099D01*
X-8969901Y-15879798D01*
X-8969897Y-15879793D01*
X-8969100Y-15878697D01*
X-8932190Y-15827894D01*
X-8844952Y-15707821D01*
X-8844947Y-15707813D01*
X-8748443Y-15518413D01*
X-8682754Y-15316243D01*
X-8682753Y-15316240D01*
X-8649500Y-15106286D01*
X-8649500Y-14893713D01*
X-8682753Y-14683759D01*
X-8682754Y-14683756D01*
X-8748443Y-14481586D01*
X-8844947Y-14292186D01*
X-8844952Y-14292178D01*
X-8969897Y-14120206D01*
X-9120206Y-13969897D01*
X-9292178Y-13844952D01*
X-9292186Y-13844947D01*
X-9481586Y-13748443D01*
X-9683756Y-13682754D01*
X-9683759Y-13682753D01*
X-9854202Y-13655757D01*
X-9893713Y-13649500D01*
X-10106287Y-13649500D01*
X-10154957Y-13657208D01*
X-10316240Y-13682753D01*
X-10316243Y-13682754D01*
X-10518413Y-13748443D01*
X-10707813Y-13844947D01*
X-10707821Y-13844952D01*
X-10879793Y-13969897D01*
X-10879798Y-13969901D01*
X-11030099Y-14120202D01*
X-11030102Y-14120206D01*
X-11030104Y-14120208D01*
X-11155051Y-14292184D01*
X-11251557Y-14481588D01*
X-11317246Y-14683757D01*
X-11350500Y-14893713D01*
X-11499500Y-14893713D01*
X-11499500Y-10960436D01*
X-6300500Y-10960436D01*
X-6300500Y-10960438D01*
X-6300500Y-12759562D01*
X-6280021Y-12835989D01*
X-6267572Y-12857551D01*
X-6240460Y-12904511D01*
X-6098709Y-13046262D01*
X-5961141Y-13183830D01*
X-5946789Y-13218478D01*
X-5961141Y-13253126D01*
X-6081527Y-13373512D01*
X-6087299Y-13382151D01*
X-6114653Y-13423089D01*
X-6130214Y-13501321D01*
X-6114653Y-13579552D01*
X-6081525Y-13629132D01*
X-4639384Y-15071273D01*
X-4589804Y-15104401D01*
X-4511573Y-15119962D01*
X-4433341Y-15104401D01*
X-4416814Y-15093358D01*
X-4383764Y-15071275D01*
X-3648724Y-14336235D01*
X-3615599Y-14286659D01*
X-3600038Y-14208427D01*
X-3615599Y-14130195D01*
X-3648727Y-14080615D01*
X-4729337Y-13000005D01*
X-505647Y-13000005D01*
X-505647Y-13000010D01*
X-485166Y-13142462D01*
X-485165Y-13142463D01*
X-485165Y-13142465D01*
X-425377Y-13273381D01*
X-331128Y-13382151D01*
X-210053Y-13459961D01*
X-94795Y-13493803D01*
X-71965Y-13500507D01*
X-71963Y-13500507D01*
X-71961Y-13500508D01*
X-71960Y-13500508D01*
X55233Y-13500508D01*
X89881Y-13514860D01*
X609406Y-14034385D01*
X665355Y-14090334D01*
X733877Y-14129895D01*
X769344Y-14139398D01*
X810302Y-14150374D01*
X810304Y-14150374D01*
X3586038Y-14150374D01*
X3620686Y-14164726D01*
X3635038Y-14199374D01*
X3635038Y-14203424D01*
X3635038Y-14203425D01*
X3635038Y-14203427D01*
X3636033Y-14208427D01*
X3650599Y-14281659D01*
X3683724Y-14331235D01*
X4418764Y-15066275D01*
X4451814Y-15088358D01*
X4468341Y-15099401D01*
X4546573Y-15114962D01*
X4624804Y-15099401D01*
X4674384Y-15066273D01*
X4846944Y-14893713D01*
X8649500Y-14893713D01*
X8649500Y-15106286D01*
X8682753Y-15316240D01*
X8682754Y-15316243D01*
X8748443Y-15518413D01*
X8844947Y-15707813D01*
X8844952Y-15707821D01*
X8932190Y-15827894D01*
X8969100Y-15878697D01*
X8969897Y-15879793D01*
X8969901Y-15879798D01*
X9120202Y-16030099D01*
X9120206Y-16030102D01*
X9120208Y-16030104D01*
X9292184Y-16155051D01*
X9481588Y-16251557D01*
X9683757Y-16317246D01*
X9893713Y-16350500D01*
X9893714Y-16350500D01*
X10106286Y-16350500D01*
X10106287Y-16350500D01*
X10316243Y-16317246D01*
X10518412Y-16251557D01*
X10707816Y-16155051D01*
X10879792Y-16030104D01*
X10879795Y-16030100D01*
X10879798Y-16030099D01*
X11030099Y-15879798D01*
X11030100Y-15879795D01*
X11030104Y-15879792D01*
X11155051Y-15707816D01*
X11251557Y-15518412D01*
X11317246Y-15316243D01*
X11350500Y-15106287D01*
X11350500Y-14893713D01*
X11317246Y-14683757D01*
X11251557Y-14481588D01*
X11155051Y-14292184D01*
X11030104Y-14120208D01*
X11030102Y-14120206D01*
X11030099Y-14120202D01*
X10879798Y-13969901D01*
X10879793Y-13969897D01*
X10707821Y-13844952D01*
X10707813Y-13844947D01*
X10518413Y-13748443D01*
X10316243Y-13682754D01*
X10316240Y-13682753D01*
X10154957Y-13657208D01*
X10106287Y-13649500D01*
X9893713Y-13649500D01*
X9854202Y-13655757D01*
X9683759Y-13682753D01*
X9683756Y-13682754D01*
X9481586Y-13748443D01*
X9292186Y-13844947D01*
X9292178Y-13844952D01*
X9120206Y-13969897D01*
X8969897Y-14120206D01*
X8844952Y-14292178D01*
X8844947Y-14292186D01*
X8748443Y-14481586D01*
X8682754Y-14683756D01*
X8682753Y-14683759D01*
X8649500Y-14893713D01*
X4846944Y-14893713D01*
X6116525Y-13624132D01*
X6149653Y-13574552D01*
X6165214Y-13496321D01*
X6149653Y-13418089D01*
X6125639Y-13382150D01*
X6116527Y-13368512D01*
X5381487Y-12633472D01*
X5331911Y-12600347D01*
X5253679Y-12584786D01*
X5175447Y-12600347D01*
X5125867Y-12633475D01*
X4224321Y-13535022D01*
X4189673Y-13549374D01*
X994633Y-13549374D01*
X959985Y-13535022D01*
X512848Y-13087885D01*
X498496Y-13053237D01*
X498993Y-13046278D01*
X505647Y-13000008D01*
X485165Y-12857551D01*
X425377Y-12726635D01*
X344651Y-12633472D01*
X331128Y-12617865D01*
X210053Y-12540055D01*
X210050Y-12540054D01*
X71965Y-12499508D01*
X71961Y-12499508D01*
X-71961Y-12499508D01*
X-71965Y-12499508D01*
X-210050Y-12540054D01*
X-210053Y-12540055D01*
X-331128Y-12617865D01*
X-344651Y-12633472D01*
X-425377Y-12726635D01*
X-467472Y-12818809D01*
X-485165Y-12857550D01*
X-485165Y-12857552D01*
X-505647Y-13000005D01*
X-4729337Y-13000005D01*
X-5090867Y-12638475D01*
X-5140447Y-12605347D01*
X-5218679Y-12589786D01*
X-5296911Y-12605347D01*
X-5346487Y-12638472D01*
X-5466874Y-12758859D01*
X-5501522Y-12773211D01*
X-5536170Y-12758859D01*
X-5685148Y-12609881D01*
X-5699500Y-12575233D01*
X-5699500Y-11144767D01*
X-5685148Y-11110119D01*
X-5389881Y-10814852D01*
X-5355233Y-10800500D01*
X-1924250Y-10800500D01*
X-1889602Y-10814852D01*
X-1887218Y-10817412D01*
X-1831128Y-10882143D01*
X-1710053Y-10959953D01*
X-1594795Y-10993795D01*
X-1571965Y-11000499D01*
X-1571963Y-11000499D01*
X-1571961Y-11000500D01*
X-1571960Y-11000500D01*
X-1428040Y-11000500D01*
X-1428039Y-11000500D01*
X-1428037Y-11000499D01*
X-1428034Y-11000499D01*
X-1366785Y-10982514D01*
X-1289947Y-10959953D01*
X-1168872Y-10882143D01*
X-1149644Y-10859953D01*
X-1074625Y-10773376D01*
X-1074624Y-10773374D01*
X-1074623Y-10773373D01*
X-1028954Y-10673373D01*
X-1014833Y-10642454D01*
X-994353Y-10500001D01*
X-994353Y-10499997D01*
X-1014833Y-10357545D01*
X-1074624Y-10226625D01*
X-1074625Y-10226623D01*
X-1168871Y-10117857D01*
X-1289949Y-10040046D01*
X-1426341Y-9999997D01*
X-305647Y-9999997D01*
X-305647Y-10000002D01*
X-285166Y-10142454D01*
X-285165Y-10142455D01*
X-285165Y-10142457D01*
X-225377Y-10273373D01*
X-131128Y-10382143D01*
X-10053Y-10459953D01*
X80117Y-10486429D01*
X128034Y-10500499D01*
X128037Y-10500499D01*
X128039Y-10500500D01*
X128040Y-10500500D01*
X271960Y-10500500D01*
X271961Y-10500500D01*
X271963Y-10500499D01*
X271965Y-10500499D01*
X294795Y-10493795D01*
X410053Y-10459953D01*
X531128Y-10382143D01*
X587218Y-10317412D01*
X620754Y-10300625D01*
X624250Y-10300500D01*
X2052110Y-10300500D01*
X2086758Y-10314852D01*
X2101110Y-10349500D01*
X2100611Y-10356473D01*
X2094353Y-10399998D01*
X2094353Y-10400002D01*
X2114833Y-10542454D01*
X2146935Y-10612746D01*
X2174623Y-10673373D01*
X2174624Y-10673374D01*
X2174625Y-10673376D01*
X2261273Y-10773373D01*
X2268872Y-10782143D01*
X2389947Y-10859953D01*
X2465517Y-10882142D01*
X2528034Y-10900499D01*
X2528037Y-10900499D01*
X2528039Y-10900500D01*
X2528040Y-10900500D01*
X2671960Y-10900500D01*
X2671961Y-10900500D01*
X2671963Y-10900499D01*
X2671965Y-10900499D01*
X2694795Y-10893795D01*
X2810053Y-10859953D01*
X2931128Y-10782143D01*
X3025377Y-10673373D01*
X3085165Y-10542457D01*
X3085165Y-10542455D01*
X3085166Y-10542454D01*
X3105647Y-10400002D01*
X3105647Y-10399997D01*
X3085166Y-10257545D01*
X3058600Y-10199375D01*
X3025377Y-10126627D01*
X3023480Y-10124438D01*
X2931128Y-10017857D01*
X2902564Y-9999500D01*
X2810053Y-9940047D01*
X2810050Y-9940046D01*
X2671965Y-9899500D01*
X2671961Y-9899500D01*
X2544767Y-9899500D01*
X2510119Y-9885148D01*
X2384511Y-9759540D01*
X2315990Y-9719979D01*
X2239564Y-9699500D01*
X2239562Y-9699500D01*
X624250Y-9699500D01*
X589602Y-9685148D01*
X587218Y-9682588D01*
X531128Y-9617857D01*
X410053Y-9540047D01*
X410050Y-9540046D01*
X271965Y-9499500D01*
X271961Y-9499500D01*
X128039Y-9499500D01*
X128034Y-9499500D01*
X-10050Y-9540046D01*
X-10053Y-9540047D01*
X-131128Y-9617857D01*
X-208842Y-9707545D01*
X-225377Y-9726627D01*
X-280751Y-9847879D01*
X-285166Y-9857545D01*
X-305647Y-9999997D01*
X-1426341Y-9999997D01*
X-1428034Y-9999500D01*
X-1428039Y-9999500D01*
X-1571961Y-9999500D01*
X-1571965Y-9999500D01*
X-1710050Y-10040046D01*
X-1710053Y-10040047D01*
X-1831128Y-10117857D01*
X-1887218Y-10182588D01*
X-1920754Y-10199375D01*
X-1924250Y-10199500D01*
X-3033810Y-10199500D01*
X-3068458Y-10185148D01*
X-3082810Y-10150500D01*
X-3075816Y-10126679D01*
X-3076079Y-10126560D01*
X-3075245Y-10124735D01*
X-3075033Y-10124011D01*
X-3074624Y-10123375D01*
X-3071317Y-10116135D01*
X-3067396Y-10107548D01*
X-3014833Y-9992454D01*
X-2994353Y-9850002D01*
X-2994353Y-9849997D01*
X-3014833Y-9707545D01*
X-3074624Y-9576625D01*
X-3074625Y-9576623D01*
X-3168872Y-9467855D01*
X-3171521Y-9465561D01*
X-3170360Y-9464221D01*
X-3188385Y-9438238D01*
X-3189500Y-9427843D01*
X-3189500Y-9253679D01*
X8585296Y-9253679D01*
X8600818Y-9331715D01*
X8633864Y-9381172D01*
X9368827Y-10116135D01*
X9418284Y-10149181D01*
X9496320Y-10164703D01*
X9574356Y-10149181D01*
X9623813Y-10116135D01*
X9772092Y-9967856D01*
X9766545Y-9954464D01*
X9764228Y-9953505D01*
X9749876Y-9918857D01*
X9749876Y-9790074D01*
X9949873Y-9790074D01*
X10739824Y-9000124D01*
X9949873Y-9000124D01*
X9949873Y-9790074D01*
X9749876Y-9790074D01*
X9749875Y-9000125D01*
X8831143Y-9000125D01*
X8796495Y-8985773D01*
X8795534Y-8983454D01*
X8782143Y-8977907D01*
X8633864Y-9126186D01*
X8600818Y-9175643D01*
X8585296Y-9253679D01*
X-3189500Y-9253679D01*
X-3189500Y-9029500D01*
X-3175148Y-8994852D01*
X-3140500Y-8980500D01*
X-2470255Y-8980500D01*
X-2470252Y-8980500D01*
X-2411769Y-8968867D01*
X-2372012Y-8942301D01*
X-2345447Y-8924552D01*
X-2318882Y-8884795D01*
X-2301133Y-8858231D01*
X-2289500Y-8799748D01*
X-2289500Y-7760305D01*
X2310000Y-7760305D01*
X2310000Y-8799694D01*
X2321604Y-8858036D01*
X2365807Y-8924192D01*
X2431963Y-8968395D01*
X2490305Y-8980000D01*
X2700001Y-8980000D01*
X2951420Y-8980000D01*
X4068581Y-8980000D01*
X3510000Y-8421419D01*
X3509999Y-8421419D01*
X2951420Y-8980000D01*
X2700001Y-8980000D01*
X2705547Y-8966609D01*
X2704586Y-8964289D01*
X2718938Y-8929641D01*
X3368579Y-8279999D01*
X3368578Y-8279998D01*
X3651420Y-8279998D01*
X3651420Y-8279999D01*
X4301062Y-8929641D01*
X4315414Y-8964289D01*
X4314452Y-8966609D01*
X4319999Y-8980000D01*
X4529695Y-8980000D01*
X4588036Y-8968395D01*
X4654192Y-8924192D01*
X4698395Y-8858036D01*
X4709914Y-8800127D01*
X8959923Y-8800127D01*
X9749875Y-8800127D01*
X9749875Y-8010176D01*
X8959923Y-8800127D01*
X4709914Y-8800127D01*
X4710000Y-8799694D01*
X4710000Y-7832395D01*
X9927655Y-7832395D01*
X9933202Y-7845786D01*
X9935521Y-7846747D01*
X9949873Y-7881395D01*
X9949873Y-8800126D01*
X10868605Y-8800126D01*
X10903253Y-8814478D01*
X10904213Y-8816797D01*
X10917604Y-8822344D01*
X11065883Y-8674065D01*
X11098929Y-8624608D01*
X11114451Y-8546572D01*
X11098929Y-8468536D01*
X11065883Y-8419079D01*
X10330920Y-7684116D01*
X10281463Y-7651070D01*
X10203427Y-7635548D01*
X10125391Y-7651070D01*
X10075934Y-7684116D01*
X9927655Y-7832395D01*
X4710000Y-7832395D01*
X4710000Y-7760305D01*
X4698395Y-7701963D01*
X4654192Y-7635807D01*
X4588036Y-7591604D01*
X4529695Y-7580000D01*
X4320000Y-7580000D01*
X4314453Y-7593391D01*
X4315413Y-7595709D01*
X4301061Y-7630357D01*
X3651420Y-8279998D01*
X3368578Y-8279998D01*
X2718938Y-7630358D01*
X2704586Y-7595710D01*
X2705546Y-7593390D01*
X2700000Y-7580000D01*
X2951420Y-7580000D01*
X3510000Y-8138580D01*
X4068580Y-7580000D01*
X2951420Y-7580000D01*
X2700000Y-7580000D01*
X2490305Y-7580000D01*
X2431963Y-7591604D01*
X2365807Y-7635807D01*
X2321604Y-7701963D01*
X2310000Y-7760305D01*
X-2289500Y-7760305D01*
X-2289500Y-7760252D01*
X-2301133Y-7701769D01*
X-2345447Y-7635447D01*
X-2411769Y-7591133D01*
X-2470252Y-7579500D01*
X-4509748Y-7579500D01*
X-4568231Y-7591133D01*
X-4594795Y-7608882D01*
X-4634552Y-7635447D01*
X-4652301Y-7662012D01*
X-4678867Y-7701769D01*
X-4690500Y-7760252D01*
X-4690500Y-8799748D01*
X-4678867Y-8858231D01*
X-4634552Y-8924552D01*
X-4568231Y-8968867D01*
X-4509748Y-8980500D01*
X-3839500Y-8980500D01*
X-3804852Y-8994852D01*
X-3790500Y-9029500D01*
X-3790500Y-9414991D01*
X-3804852Y-9449639D01*
X-3813006Y-9456211D01*
X-3825470Y-9464221D01*
X-3831128Y-9467857D01*
X-3893680Y-9540047D01*
X-3925377Y-9576627D01*
X-3944206Y-9617857D01*
X-3985166Y-9707545D01*
X-4005647Y-9849997D01*
X-4005647Y-9850002D01*
X-3985166Y-9992454D01*
X-3985165Y-9992455D01*
X-3985165Y-9992457D01*
X-3925377Y-10123373D01*
X-3925375Y-10123375D01*
X-3924967Y-10124011D01*
X-3924889Y-10124438D01*
X-3923921Y-10126560D01*
X-3924462Y-10126807D01*
X-3918310Y-10160919D01*
X-3939701Y-10191723D01*
X-3966190Y-10199500D01*
X-5539565Y-10199500D01*
X-5615986Y-10219977D01*
X-5615989Y-10219978D01*
X-5684511Y-10259540D01*
X-6240459Y-10815488D01*
X-6280020Y-10884008D01*
X-6280020Y-10884009D01*
X-6280021Y-10884011D01*
X-6284439Y-10900499D01*
X-6300500Y-10960436D01*
X-11499500Y-10960436D01*
X-11499500Y-9972856D01*
X-9737092Y-9972856D01*
X-9588813Y-10121135D01*
X-9539356Y-10154181D01*
X-9461320Y-10169703D01*
X-9383284Y-10154181D01*
X-9333827Y-10121135D01*
X-8598864Y-9386172D01*
X-8565818Y-9336715D01*
X-8550296Y-9258679D01*
X-8565818Y-9180643D01*
X-8598864Y-9131186D01*
X-8747143Y-8982907D01*
X-8760535Y-8988454D01*
X-8761495Y-8990772D01*
X-8796143Y-9005124D01*
X-9714875Y-9005124D01*
X-9714875Y-9923857D01*
X-9729227Y-9958505D01*
X-9731545Y-9959465D01*
X-9737092Y-9972856D01*
X-11499500Y-9972856D01*
X-11499500Y-9005125D01*
X-10704824Y-9005125D01*
X-9914873Y-9795075D01*
X-9914873Y-9005125D01*
X-10704824Y-9005125D01*
X-11499500Y-9005125D01*
X-11499500Y-8551572D01*
X-11079451Y-8551572D01*
X-11063929Y-8629608D01*
X-11030883Y-8679065D01*
X-10882604Y-8827344D01*
X-10869213Y-8821797D01*
X-10868253Y-8819479D01*
X-10833605Y-8805127D01*
X-9914873Y-8805127D01*
X-9914873Y-8805126D01*
X-9714875Y-8805126D01*
X-8924923Y-8805126D01*
X-9714875Y-8015175D01*
X-9714875Y-8805126D01*
X-9914873Y-8805126D01*
X-9914874Y-7886395D01*
X-9900522Y-7851747D01*
X-9898202Y-7850786D01*
X-9892655Y-7837395D01*
X-10040934Y-7689116D01*
X-10090391Y-7656070D01*
X-10168427Y-7640548D01*
X-10246463Y-7656070D01*
X-10295920Y-7689116D01*
X-11030883Y-8424079D01*
X-11063929Y-8473536D01*
X-11079451Y-8551572D01*
X-11499500Y-8551572D01*
X-11499500Y-2505252D01*
X-6750500Y-2505252D01*
X-6750500Y-4544748D01*
X-6738867Y-4603231D01*
X-6694552Y-4669552D01*
X-6628231Y-4713867D01*
X-6569748Y-4725500D01*
X-6399500Y-4725500D01*
X-6364852Y-4739852D01*
X-6350500Y-4774500D01*
X-6350500Y-5021417D01*
X-6364852Y-5056065D01*
X-6373006Y-5062637D01*
X-6381128Y-5067857D01*
X-6381129Y-5067859D01*
X-6381131Y-5067860D01*
X-6442657Y-5138866D01*
X-6475377Y-5176627D01*
X-6524468Y-5284120D01*
X-6535166Y-5307545D01*
X-6555647Y-5449997D01*
X-6555647Y-5450002D01*
X-6535166Y-5592454D01*
X-6535165Y-5592455D01*
X-6535165Y-5592457D01*
X-6475377Y-5723373D01*
X-6381128Y-5832143D01*
X-6260053Y-5909953D01*
X-6144795Y-5943795D01*
X-6121965Y-5950499D01*
X-6121963Y-5950499D01*
X-6121961Y-5950500D01*
X-6121960Y-5950500D01*
X-5978040Y-5950500D01*
X-5978039Y-5950500D01*
X-5978037Y-5950499D01*
X-5978034Y-5950499D01*
X-5898267Y-5927077D01*
X-5839947Y-5909953D01*
X-5718872Y-5832143D01*
X-5677693Y-5784620D01*
X-5624625Y-5723376D01*
X-5624624Y-5723374D01*
X-5624623Y-5723373D01*
X-5587535Y-5642163D01*
X-5564833Y-5592454D01*
X-5544353Y-5450002D01*
X-5544353Y-5449997D01*
X-5564833Y-5307545D01*
X-5624624Y-5176625D01*
X-5624625Y-5176623D01*
X-5718868Y-5067860D01*
X-5718872Y-5067857D01*
X-5726994Y-5062637D01*
X-5748381Y-5031830D01*
X-5749500Y-5021417D01*
X-5749500Y-4774500D01*
X-5735148Y-4739852D01*
X-5700500Y-4725500D01*
X-5530255Y-4725500D01*
X-5530252Y-4725500D01*
X-5471769Y-4713867D01*
X-5432012Y-4687301D01*
X-5405447Y-4669552D01*
X-5378882Y-4629795D01*
X-5361133Y-4603231D01*
X-5349500Y-4544748D01*
X-5349500Y-2930252D01*
X-700500Y-2930252D01*
X-700500Y-4969748D01*
X-688867Y-5028231D01*
X-644552Y-5094552D01*
X-578231Y-5138867D01*
X-519748Y-5150500D01*
X-519745Y-5150500D01*
X519745Y-5150500D01*
X519748Y-5150500D01*
X578231Y-5138867D01*
X644552Y-5094552D01*
X688867Y-5028231D01*
X700500Y-4969748D01*
X700500Y-4299500D01*
X714852Y-4264852D01*
X749500Y-4250500D01*
X1470613Y-4250500D01*
X1505261Y-4264852D01*
X2937150Y-5696741D01*
X2951502Y-5731389D01*
X2951003Y-5738362D01*
X2944353Y-5784618D01*
X2944353Y-5784622D01*
X2964833Y-5927074D01*
X2975532Y-5950500D01*
X3024623Y-6057993D01*
X3024624Y-6057994D01*
X3024625Y-6057996D01*
X3118871Y-6166762D01*
X3118872Y-6166763D01*
X3239947Y-6244573D01*
X3316785Y-6267134D01*
X3378034Y-6285119D01*
X3378037Y-6285119D01*
X3378039Y-6285120D01*
X3378040Y-6285120D01*
X3521960Y-6285120D01*
X3521961Y-6285120D01*
X3521963Y-6285119D01*
X3521965Y-6285119D01*
X3544795Y-6278415D01*
X3660053Y-6244573D01*
X3781128Y-6166763D01*
X3875377Y-6057993D01*
X3935165Y-5927077D01*
X3935165Y-5927075D01*
X3935166Y-5927074D01*
X3955647Y-5784622D01*
X3955647Y-5784617D01*
X3935166Y-5642165D01*
X3930751Y-5632499D01*
X3875377Y-5511247D01*
X3865633Y-5500002D01*
X3781128Y-5402477D01*
X3660053Y-5324667D01*
X3660050Y-5324666D01*
X3521965Y-5284120D01*
X3521961Y-5284120D01*
X3394767Y-5284120D01*
X3360119Y-5269768D01*
X1799891Y-3709540D01*
X1731370Y-3669979D01*
X1654944Y-3649500D01*
X1654942Y-3649500D01*
X749500Y-3649500D01*
X714852Y-3635148D01*
X700500Y-3600500D01*
X700500Y-2930255D01*
X700500Y-2930252D01*
X688867Y-2871769D01*
X662301Y-2832012D01*
X644552Y-2805447D01*
X604795Y-2778882D01*
X578231Y-2761133D01*
X519748Y-2749500D01*
X-519748Y-2749500D01*
X-578231Y-2761133D01*
X-604795Y-2778882D01*
X-644552Y-2805447D01*
X-662301Y-2832012D01*
X-688867Y-2871769D01*
X-700500Y-2930252D01*
X-5349500Y-2930252D01*
X-5349500Y-2505252D01*
X-5352484Y-2490252D01*
X5409500Y-2490252D01*
X5409500Y-4529748D01*
X5421133Y-4588231D01*
X5431155Y-4603230D01*
X5465447Y-4654552D01*
X5487897Y-4669552D01*
X5531769Y-4698867D01*
X5590252Y-4710500D01*
X5760500Y-4710500D01*
X5795148Y-4724852D01*
X5809500Y-4759500D01*
X5809500Y-5000724D01*
X5795148Y-5035372D01*
X5786991Y-5041945D01*
X5668874Y-5117853D01*
X5668872Y-5117855D01*
X5574625Y-5226623D01*
X5574624Y-5226625D01*
X5514833Y-5357545D01*
X5494353Y-5499997D01*
X5494353Y-5500002D01*
X5514833Y-5642454D01*
X5539626Y-5696741D01*
X5574623Y-5773373D01*
X5574624Y-5773374D01*
X5574625Y-5773376D01*
X5584370Y-5784622D01*
X5668872Y-5882143D01*
X5789947Y-5959953D01*
X5866785Y-5982514D01*
X5928034Y-6000499D01*
X5928037Y-6000499D01*
X5928039Y-6000500D01*
X5928040Y-6000500D01*
X6071960Y-6000500D01*
X6071961Y-6000500D01*
X6071963Y-6000499D01*
X6071965Y-6000499D01*
X6094795Y-5993795D01*
X6210053Y-5959953D01*
X6331128Y-5882143D01*
X6425377Y-5773373D01*
X6485165Y-5642457D01*
X6485165Y-5642455D01*
X6485166Y-5642454D01*
X6505647Y-5500002D01*
X6505647Y-5499997D01*
X6485166Y-5357545D01*
X6462331Y-5307545D01*
X6425377Y-5226627D01*
X6425373Y-5226622D01*
X6422465Y-5223265D01*
X6410500Y-5191181D01*
X6410500Y-4759500D01*
X6424852Y-4724852D01*
X6459500Y-4710500D01*
X6629745Y-4710500D01*
X6629748Y-4710500D01*
X6688231Y-4698867D01*
X6754552Y-4654552D01*
X6798867Y-4588231D01*
X6810500Y-4529748D01*
X6810500Y-2490252D01*
X6798867Y-2431769D01*
X6764574Y-2380447D01*
X6754552Y-2365447D01*
X6710680Y-2336133D01*
X6688231Y-2321133D01*
X6629748Y-2309500D01*
X5590252Y-2309500D01*
X5531769Y-2321133D01*
X5465447Y-2365447D01*
X5421133Y-2431769D01*
X5409500Y-2490252D01*
X-5352484Y-2490252D01*
X-5361133Y-2446769D01*
X-5405447Y-2380447D01*
X-5471769Y-2336133D01*
X-5530252Y-2324500D01*
X-6569748Y-2324500D01*
X-6628231Y-2336133D01*
X-6654795Y-2353882D01*
X-6694552Y-2380447D01*
X-6712301Y-2407012D01*
X-6738867Y-2446769D01*
X-6750500Y-2505252D01*
X-11499500Y-2505252D01*
X-11499500Y2240000D01*
X-700000Y2240000D01*
X-700000Y2030305D01*
X-688395Y1971963D01*
X-644192Y1905807D01*
X-578036Y1861604D01*
X-519695Y1850000D01*
X519695Y1850000D01*
X578036Y1861604D01*
X644192Y1905807D01*
X688395Y1971963D01*
X700000Y2030305D01*
X700000Y2240001D01*
X686609Y2245547D01*
X684289Y2244586D01*
X649641Y2258938D01*
X0Y2908580D01*
X-649642Y2258938D01*
X-684290Y2244586D01*
X-686609Y2245546D01*
X-700000Y2240000D01*
X-11499500Y2240000D01*
X-11499500Y2665000D01*
X-6750000Y2665000D01*
X-6750000Y2455305D01*
X-6738395Y2396963D01*
X-6694192Y2330807D01*
X-6628036Y2286604D01*
X-6569695Y2275000D01*
X-5530305Y2275000D01*
X-5471963Y2286604D01*
X-5405807Y2330807D01*
X-5361604Y2396963D01*
X-5350000Y2455305D01*
X-5350000Y2491420D01*
X-700000Y2491420D01*
X-141420Y3050000D01*
X141419Y3050000D01*
X700000Y2491419D01*
X700000Y2680000D01*
X5410000Y2680000D01*
X5410000Y2470305D01*
X5421604Y2411963D01*
X5465807Y2345807D01*
X5531963Y2301604D01*
X5590305Y2290000D01*
X6629695Y2290000D01*
X6688036Y2301604D01*
X6754192Y2345807D01*
X6798395Y2411963D01*
X6810000Y2470305D01*
X6810000Y2680001D01*
X6796609Y2685547D01*
X6794289Y2684586D01*
X6759641Y2698938D01*
X6110000Y3348580D01*
X5460358Y2698938D01*
X5425710Y2684586D01*
X5423390Y2685546D01*
X5410000Y2680000D01*
X700000Y2680000D01*
X700000Y2931420D01*
X5410000Y2931420D01*
X5968580Y3490000D01*
X6251419Y3490000D01*
X6810000Y2931419D01*
X6810000Y4048580D01*
X6251419Y3490000D01*
X5968580Y3490000D01*
X5410000Y4048579D01*
X5410000Y2931420D01*
X700000Y2931420D01*
X700000Y3608580D01*
X141419Y3050000D01*
X-141420Y3050000D01*
X-700000Y3608580D01*
X-700000Y2491420D01*
X-5350000Y2491420D01*
X-5350000Y2665001D01*
X-5363390Y2670547D01*
X-5365710Y2669587D01*
X-5400358Y2683939D01*
X-6049999Y3333580D01*
X-6699641Y2683937D01*
X-6734289Y2669585D01*
X-6736609Y2670546D01*
X-6750000Y2665000D01*
X-11499500Y2665000D01*
X-11499500Y2916420D01*
X-6750000Y2916420D01*
X-6191420Y3475000D01*
X-5908580Y3475000D01*
X-5350000Y2916420D01*
X-5350000Y4033579D01*
X-5908580Y3475000D01*
X-6191420Y3475000D01*
X-6750000Y4033580D01*
X-6750000Y2916420D01*
X-11499500Y2916420D01*
X-11499500Y4494694D01*
X-6750000Y4494694D01*
X-6750000Y4284999D01*
X-6736609Y4279453D01*
X-6734290Y4280414D01*
X-6699642Y4266062D01*
X-6050000Y3616420D01*
X-5596725Y4069694D01*
X-700000Y4069694D01*
X-700000Y3859999D01*
X-686609Y3854453D01*
X-684290Y3855414D01*
X-649642Y3841062D01*
X0Y3191420D01*
X649641Y3841061D01*
X684289Y3855413D01*
X686608Y3854452D01*
X700000Y3859998D01*
X700000Y4069694D01*
X688395Y4128036D01*
X644192Y4194192D01*
X578036Y4238395D01*
X519695Y4250000D01*
X-519695Y4250000D01*
X-578036Y4238395D01*
X-644192Y4194192D01*
X-688395Y4128036D01*
X-700000Y4069694D01*
X-5596725Y4069694D01*
X-5400358Y4266061D01*
X-5365710Y4280413D01*
X-5363390Y4279452D01*
X-5350000Y4284998D01*
X-5350000Y4494694D01*
X-5352983Y4509694D01*
X5410000Y4509694D01*
X5410000Y4299999D01*
X5423391Y4294453D01*
X5425709Y4295413D01*
X5460357Y4281061D01*
X6109999Y3631420D01*
X6759641Y4281062D01*
X6794289Y4295414D01*
X6796609Y4294452D01*
X6810000Y4299998D01*
X6810000Y4509694D01*
X6798395Y4568036D01*
X6754192Y4634192D01*
X6688036Y4678395D01*
X6629695Y4690000D01*
X5590305Y4690000D01*
X5531963Y4678395D01*
X5465807Y4634192D01*
X5421604Y4568036D01*
X5410000Y4509694D01*
X-5352983Y4509694D01*
X-5361604Y4553036D01*
X-5405807Y4619192D01*
X-5471963Y4663395D01*
X-5530305Y4675000D01*
X-6569695Y4675000D01*
X-6628036Y4663395D01*
X-6694192Y4619192D01*
X-6738395Y4553036D01*
X-6750000Y4494694D01*
X-11499500Y4494694D01*
X-11499500Y6608693D01*
X-11485148Y6643341D01*
X-11450500Y6657693D01*
X-11415852Y6643341D01*
X-11006235Y6233724D01*
X-10956659Y6200599D01*
X-10878427Y6185038D01*
X-10878425Y6185038D01*
X-10874374Y6185038D01*
X-10839726Y6170686D01*
X-10825374Y6136038D01*
X-10825374Y5485310D01*
X-10818579Y5459953D01*
X-10804895Y5408885D01*
X-10804894Y5408884D01*
X-10804894Y5408882D01*
X-10765333Y5340362D01*
X-10512848Y5087877D01*
X-10498496Y5053229D01*
X-10498993Y5046270D01*
X-10505647Y5000002D01*
X-10505647Y4999999D01*
X-10505647Y4999998D01*
X-10485166Y4857545D01*
X-10485165Y4857543D01*
X-10425377Y4726627D01*
X-10425375Y4726625D01*
X-10425374Y4726623D01*
X-10370587Y4663395D01*
X-10331128Y4617857D01*
X-10210053Y4540047D01*
X-10210050Y4540046D01*
X-10071965Y4499500D01*
X-10071961Y4499500D01*
X-9928034Y4499500D01*
X-9789949Y4540046D01*
X-9668871Y4617857D01*
X-9574625Y4726623D01*
X-9574624Y4726625D01*
X-9514833Y4857545D01*
X-9494353Y4999997D01*
X-9494353Y5000002D01*
X-9514833Y5142454D01*
X-9546935Y5212746D01*
X-9574623Y5273373D01*
X-9574624Y5273374D01*
X-9574625Y5273376D01*
X-9668871Y5382142D01*
X-9668872Y5382143D01*
X-9789947Y5459953D01*
X-9876313Y5485312D01*
X-9928034Y5500499D01*
X-9928037Y5500499D01*
X-9928039Y5500500D01*
X-10055233Y5500500D01*
X-10089881Y5514852D01*
X-10210022Y5634993D01*
X-10224374Y5669641D01*
X-10224374Y6739673D01*
X-10210022Y6774321D01*
X-9308475Y7675867D01*
X-9275347Y7725447D01*
X-9259786Y7803679D01*
X-9275347Y7881911D01*
X-9308472Y7931487D01*
X-10043512Y8666527D01*
X-10093088Y8699652D01*
X-10093089Y8699653D01*
X-10171321Y8715214D01*
X-10249552Y8699653D01*
X-10299132Y8666525D01*
X-11034167Y7931490D01*
X-11415852Y7549805D01*
X-11450500Y7535453D01*
X-11485148Y7549805D01*
X-11499500Y7584453D01*
X-11499500Y8769748D01*
X-4675500Y8769748D01*
X-4675500Y7730252D01*
X-4663867Y7671769D01*
X-4637301Y7632012D01*
X-4619552Y7605447D01*
X-4579795Y7578882D01*
X-4553231Y7561133D01*
X-4494748Y7549500D01*
X-3824500Y7549500D01*
X-3789852Y7535148D01*
X-3775500Y7500500D01*
X-3775500Y6444648D01*
X-3789852Y6410000D01*
X-3798004Y6403429D01*
X-3831128Y6382143D01*
X-3925377Y6273373D01*
X-3985165Y6142457D01*
X-3985166Y6142454D01*
X-4005647Y6000002D01*
X-4005647Y5999997D01*
X-3985166Y5857545D01*
X-3985165Y5857543D01*
X-3925377Y5726627D01*
X-3831128Y5617857D01*
X-3710053Y5540047D01*
X-3710050Y5540046D01*
X-3571965Y5499500D01*
X-3571961Y5499500D01*
X-3428034Y5499500D01*
X-3289949Y5540046D01*
X-3168871Y5617857D01*
X-3074625Y5726623D01*
X-3074624Y5726625D01*
X-3014833Y5857545D01*
X-2994353Y5999997D01*
X-2994353Y6000002D01*
X-3014833Y6142454D01*
X-3056517Y6233727D01*
X-3074623Y6273373D01*
X-3074624Y6273374D01*
X-3074625Y6273376D01*
X-3162532Y6374826D01*
X-3174500Y6406914D01*
X-3174500Y7500500D01*
X-3160148Y7535148D01*
X-3125500Y7549500D01*
X-2455255Y7549500D01*
X-2455252Y7549500D01*
X-2396769Y7561133D01*
X-2389919Y7565710D01*
X-2330447Y7605447D01*
X-2286133Y7671769D01*
X-2275456Y7725448D01*
X-2274500Y7730252D01*
X-2274500Y8769694D01*
X2325000Y8769694D01*
X2325000Y7730305D01*
X2336604Y7671963D01*
X2380807Y7605807D01*
X2446963Y7561604D01*
X2505305Y7550000D01*
X2715001Y7550000D01*
X2966421Y7550000D01*
X4083581Y7550000D01*
X3525000Y8108580D01*
X3524999Y8108580D01*
X2966421Y7550000D01*
X2715001Y7550000D01*
X2720547Y7563390D01*
X2719587Y7565710D01*
X2733939Y7600358D01*
X3383580Y8249999D01*
X3383579Y8250000D01*
X3666420Y8250000D01*
X4316062Y7600359D01*
X4330414Y7565711D01*
X4329452Y7563390D01*
X4334999Y7550000D01*
X4544695Y7550000D01*
X4603036Y7561604D01*
X4669192Y7605807D01*
X4713395Y7671963D01*
X4725000Y7730305D01*
X4725000Y8769694D01*
X4713395Y8828036D01*
X4669192Y8894192D01*
X4603036Y8938395D01*
X4544695Y8950000D01*
X4335000Y8950000D01*
X4329453Y8936609D01*
X4330414Y8934290D01*
X4316062Y8899642D01*
X3666420Y8250000D01*
X3383579Y8250000D01*
X2733938Y8899642D01*
X2719586Y8934290D01*
X2720546Y8936609D01*
X2715000Y8950000D01*
X2966420Y8950000D01*
X3525000Y8391420D01*
X4083580Y8950000D01*
X2966420Y8950000D01*
X2715000Y8950000D01*
X2505305Y8950000D01*
X2446963Y8938395D01*
X2380807Y8894192D01*
X2336604Y8828036D01*
X2325000Y8769694D01*
X-2274500Y8769694D01*
X-2274500Y8769748D01*
X-2286133Y8828231D01*
X-2303882Y8854795D01*
X-2330447Y8894552D01*
X-2357012Y8912301D01*
X-2396769Y8938867D01*
X-2455252Y8950500D01*
X-4494748Y8950500D01*
X-4553231Y8938867D01*
X-4619552Y8894552D01*
X-4663867Y8828231D01*
X-4675500Y8769748D01*
X-11499500Y8769748D01*
X-11499500Y12046320D01*
X-6839703Y12046320D01*
X-6824181Y11968284D01*
X-6791135Y11918827D01*
X-6056172Y11183864D01*
X-6006715Y11150818D01*
X-5928679Y11135296D01*
X-5850643Y11150818D01*
X-5801186Y11183864D01*
X-5652907Y11332143D01*
X5652907Y11332143D01*
X5801186Y11183864D01*
X5850643Y11150818D01*
X5928679Y11135296D01*
X6006715Y11150818D01*
X6056172Y11183864D01*
X6791135Y11918827D01*
X6824181Y11968284D01*
X6839703Y12046320D01*
X6824181Y12124356D01*
X6791135Y12173813D01*
X6642856Y12322092D01*
X6629465Y12316545D01*
X6628505Y12314227D01*
X6593857Y12299875D01*
X5675126Y12299875D01*
X5675125Y12299874D01*
X5675125Y11381143D01*
X5660773Y11346495D01*
X5658454Y11345534D01*
X5652907Y11332143D01*
X-5652907Y11332143D01*
X-5658454Y11345535D01*
X-5660772Y11346495D01*
X-5675124Y11381143D01*
X-5675124Y11509924D01*
X-5475126Y11509924D01*
X-4685175Y12299875D01*
X4685176Y12299875D01*
X5475127Y11509924D01*
X5475127Y12299875D01*
X4685176Y12299875D01*
X-4685175Y12299875D01*
X-5475126Y12299875D01*
X-5475126Y11509924D01*
X-5675124Y11509924D01*
X-5675124Y12299874D01*
X-5675126Y12299875D01*
X-6593857Y12299875D01*
X-6628505Y12314227D01*
X-6629465Y12316545D01*
X-6642856Y12322092D01*
X-6791135Y12173813D01*
X-6824181Y12124356D01*
X-6839703Y12046320D01*
X-11499500Y12046320D01*
X-11499500Y12499873D01*
X-6465076Y12499873D01*
X-5675125Y12499873D01*
X-5675125Y13289823D01*
X-6465076Y12499873D01*
X-11499500Y12499873D01*
X-11499500Y13467605D01*
X-5497344Y13467605D01*
X-5491797Y13454213D01*
X-5489479Y13453253D01*
X-5475127Y13418605D01*
X-5475127Y12499873D01*
X-4556395Y12499873D01*
X-4521747Y12485521D01*
X-4520786Y12483202D01*
X-4507395Y12477655D01*
X-4359116Y12625934D01*
X-4326070Y12675391D01*
X-4310548Y12753427D01*
X4310548Y12753427D01*
X4326070Y12675391D01*
X4359116Y12625934D01*
X4507395Y12477655D01*
X4520786Y12483202D01*
X4521747Y12485521D01*
X4556395Y12499873D01*
X5475127Y12499873D01*
X5675124Y12499873D01*
X6465075Y12499873D01*
X5675124Y13289823D01*
X5675124Y12499873D01*
X5475127Y12499873D01*
X5475126Y13418605D01*
X5489478Y13453253D01*
X5491797Y13454213D01*
X5497344Y13467605D01*
X5349066Y13615882D01*
X5349065Y13615883D01*
X5299608Y13648929D01*
X5221572Y13664451D01*
X5143536Y13648929D01*
X5094079Y13615883D01*
X4359116Y12880920D01*
X4326070Y12831463D01*
X4310548Y12753427D01*
X-4310548Y12753427D01*
X-4326070Y12831463D01*
X-4359116Y12880920D01*
X-5094079Y13615883D01*
X-5143536Y13648929D01*
X-5221572Y13664451D01*
X-5299608Y13648929D01*
X-5349065Y13615883D01*
X-5349066Y13615882D01*
X-5497344Y13467605D01*
X-11499500Y13467605D01*
X-11499500Y15106287D01*
X-11350500Y15106287D01*
X-11350500Y14893713D01*
X-11317246Y14683757D01*
X-11251557Y14481588D01*
X-11155051Y14292184D01*
X-11030104Y14120208D01*
X-11030102Y14120206D01*
X-11030099Y14120202D01*
X-10879798Y13969901D01*
X-10879793Y13969897D01*
X-10707821Y13844952D01*
X-10707813Y13844947D01*
X-10518413Y13748443D01*
X-10316243Y13682754D01*
X-10316240Y13682753D01*
X-10154957Y13657208D01*
X-10106287Y13649500D01*
X-10106286Y13649500D01*
X-9893714Y13649500D01*
X-9893713Y13649500D01*
X-9854202Y13655757D01*
X-9683759Y13682753D01*
X-9683756Y13682754D01*
X-9481586Y13748443D01*
X-9292186Y13844947D01*
X-9292178Y13844952D01*
X-9120206Y13969897D01*
X-8969897Y14120206D01*
X-8844952Y14292178D01*
X-8844947Y14292186D01*
X-8748443Y14481586D01*
X-8682754Y14683756D01*
X-8682753Y14683759D01*
X-8649500Y14893713D01*
X-8649500Y15106286D01*
X8649500Y15106286D01*
X8649500Y14893713D01*
X8682753Y14683759D01*
X8682754Y14683756D01*
X8748443Y14481586D01*
X8844947Y14292186D01*
X8844952Y14292178D01*
X8969897Y14120206D01*
X9120206Y13969897D01*
X9292178Y13844952D01*
X9292186Y13844947D01*
X9481586Y13748443D01*
X9683756Y13682754D01*
X9683759Y13682753D01*
X9854202Y13655757D01*
X9893713Y13649500D01*
X9893714Y13649500D01*
X10106286Y13649500D01*
X10106287Y13649500D01*
X10154957Y13657208D01*
X10316240Y13682753D01*
X10316243Y13682754D01*
X10518413Y13748443D01*
X10707813Y13844947D01*
X10707821Y13844952D01*
X10879793Y13969897D01*
X10879798Y13969901D01*
X11030099Y14120202D01*
X11030102Y14120206D01*
X11030104Y14120208D01*
X11155051Y14292184D01*
X11251557Y14481588D01*
X11317246Y14683757D01*
X11350500Y14893713D01*
X11350500Y15106287D01*
X11317246Y15316243D01*
X11251557Y15518412D01*
X11155051Y15707816D01*
X11030104Y15879792D01*
X11030100Y15879795D01*
X11030099Y15879798D01*
X10879798Y16030099D01*
X10879795Y16030100D01*
X10879792Y16030104D01*
X10707816Y16155051D01*
X10518412Y16251557D01*
X10316243Y16317246D01*
X10106287Y16350500D01*
X9893713Y16350500D01*
X9683757Y16317246D01*
X9481588Y16251557D01*
X9292184Y16155051D01*
X9120208Y16030104D01*
X9120206Y16030102D01*
X9120202Y16030099D01*
X8969901Y15879798D01*
X8969897Y15879793D01*
X8844952Y15707821D01*
X8844947Y15707813D01*
X8748443Y15518413D01*
X8682754Y15316243D01*
X8682753Y15316240D01*
X8649500Y15106286D01*
X-8649500Y15106286D01*
X-8682753Y15316240D01*
X-8682754Y15316243D01*
X-8748443Y15518413D01*
X-8844947Y15707813D01*
X-8844952Y15707821D01*
X-8969897Y15879793D01*
X-8969901Y15879798D01*
X-9120202Y16030099D01*
X-9120206Y16030102D01*
X-9120208Y16030104D01*
X-9292184Y16155051D01*
X-9481588Y16251557D01*
X-9683757Y16317246D01*
X-9893713Y16350500D01*
X-10106287Y16350500D01*
X-10316243Y16317246D01*
X-10518412Y16251557D01*
X-10707816Y16155051D01*
X-10879792Y16030104D01*
X-10879795Y16030100D01*
X-10879798Y16030099D01*
X-11030099Y15879798D01*
X-11030100Y15879795D01*
X-11030104Y15879792D01*
X-11155051Y15707816D01*
X-11251557Y15518412D01*
X-11317246Y15316243D01*
X-11350500Y15106287D01*
X-11499500Y15106287D01*
X-11499500Y16450500D01*
X-11485148Y16485148D01*
X-11450500Y16499500D01*
X11450500Y16499500D01*
X11485148Y16485148D01*
G37*
%TD.AperFunction*%
%TD*%
M02*
